<?xml version="1.0" encoding="utf-8"?>
<!-- Generator: Adobe Illustrator 18.1.0, SVG Export Plug-In . SVG Version: 6.00 Build 0)  -->
<svg version="1.1" id="Layer_1" xmlns="http://www.w3.org/2000/svg" xmlns:xlink="http://www.w3.org/1999/xlink" x="0px" y="0px"
	 viewBox="0 0 500 500" enable-background="new 0 0 500 500" xml:space="preserve">
<g>
	<path fill="#010101" d="M403.5,277.8c74.6-55.6,69.2-89.8,69.2-89.8c0.5-7.3-22.8,1.5-22.8,1.5c-10.6,2.3-22.8-4.6-22.8-4.6
		l-22.8-28.1l-16.7-26.6c0,0-2.3-34.2-17.5-44.2c-15.2-9.9-19-14.4-6.8-25.1c12.2-10.6,0-12.2,0-12.2s-25.1,0.8-46.3-6.8
		c-21.3-7.6-39.5-16-41-6.1c-1.5,9.9-13.7,12.2-13.7,12.2l-22-11.4c0,0-32.7-2.3-25.8-9.1c6.8-6.8,0-27.4,0-27.4
		c-13.7,0.8-67,11.4-67,11.4L113,15.9C78.8,27.3,85.6,54,75,60.8s-52.4,45.7-47.2,57.1c5.3,11.4,5.3,38.7,3.8,47.2
		c-1.5,8.4,1.5,9.1,29.6,46.5c28.1,37.2,75.3,6.8,101.9,8.4c26.6,1.5,48,18.2,41,34.2c-6.8,16,0,22,0,22c41,36.6,20.5,67,16.7,78.4
		c-3.8,11.4-3.8,19-3.8,19l12.9,31.9l7.6,27.4c0,0,19,41,19,44.8c0,3.8,0,21.3,6.1,22c6.1,0.8,35.7-3.8,35.7-3.8
		c49.5-12.9,60.9-66.2,60.9-66.2c6.1,0,19-6.8,14.4-18.2c-4.6-11.4,0.8-30.4,10.6-32.7c9.9-2.3,32.7-17.5,19-47.2
		C389.8,302.1,403.5,277.8,403.5,277.8z"/>
	<path fill="#010101" d="M456.2,348.4c0,5.3-20,19-20,19c-13.2,6.4-9.2,9.9-9.2,9.9c5.3,4.6,9.9-5.3,2.3,14.4
		c-7.6,19.8-11.4,36.6,6.8,38s15.2-16.7,25.8-47.2c10.6-30.4,0-41.9,0-41.9C460.6,340.4,456.2,343.1,456.2,348.4z"/>
</g>
</svg>
