<?xml version="1.0" encoding="utf-8"?>
<!-- Generator: Adobe Illustrator 18.1.0, SVG Export Plug-In . SVG Version: 6.00 Build 0)  -->
<svg version="1.1" id="Layer_1" xmlns="http://www.w3.org/2000/svg" xmlns:xlink="http://www.w3.org/1999/xlink" x="0px" y="0px"
	 viewBox="0 0 500 500" enable-background="new 0 0 500 500" xml:space="preserve">
<g>
	<g>
		<path fill="#010101" d="M491.4,148.4c-6.7-0.8-5.4-2.8-5.4-2.8l-14.9-12.4l-8.2-6.4c0,0-13.8-3-14.9-3c-1.1,0-6.7,0-6.7,0
			l-0.5,5.7c0,0-1.1,0.3-2.1,0.5c-1.1,0.3-4.1-1.6-4.9-2.1c-0.8-0.5-3.8-1.6-3.8-1.6h-10.5c0,0,0.3-0.3-1.8,0s-5.9,0.3-5.9,0.3
			l-3.3-2.6l2.1-3.8v-3.6h-1.1l-8.4-1.8h-4.6h-3h-8.9l-4.3-3.6c0,0-1.3-0.5-2.4-1.8c-1.1-1.3-3-5.1-3-5.1l-2.1-1.6H369
			c0,0-0.5,2.6-3.3,1.6c-2.6-1.1-6.4-4.3-6.4-4.3l-2.1-1.3h-2.4h-3l-2.1,3.8l-1.6,3l-1.8,3.6l-5.9,2.8l-4.1-0.3l-9.7-2.4l-2.6-0.3
			l-4.9,4.1l-3-1.3c0,0-1.1-4.6-1.1-5.4c0-0.8,0-2.1,0-3.3c0-1.1-0.3-2.8-0.3-4.1c0-1.3,1.8-2.8,0-4.1c-1.8-1.3-7.5-5.7-7.5-5.7
			s-0.3-1.1-2.6-1.3c-2.4-0.3-5.1,0-5.1,0l-1.3-0.1l-2.1,2l-1.1,2.6l-0.8,3c0,0-2.8,0.3-4.1-0.3c-1.3-0.5-4.3-2.6-4.3-2.6l-2.8-2.1
			c0,0-0.3-2.9-2.1-2.5c-1.8,0.4-4.3,0-4.3,0s-1.6-0.1-3,0c-1.3,0.1-4.1,0.8-4.9-0.1c-0.8-0.8-2.4-1.7-2.4-1.7s-1.3,0-3.3,0
			c-1.8,0-4.6,0-4.6,0l-1.3,2.1l-5.1,0.8l-2,1.3l-2.1-0.8l2.1-3.6l2-1.8l2.4-2.4l3.8-3.6l3.3-3l3.3-2.4l1.6-1.3
			c0,0,9.2-10.8-4.3-17.8c-13.5-7-9.5-3.3-9.5-3.3l-8.9-1.1v-4.6l-2.4-4.3c0,0-1.3,0.5-2.4,0c-1.1-0.5-4.3,0-5.1,0
			c-0.8,0-2.1-0.3-2.1-0.3s-0.8,1.1-2.1,4.3s-2.1,3.6-3.3,5.4c-1.1,1.8,1.1,1.1-2.1,3.3c-3.3,2.1-5.4,3.3-5.4,3.3l-3.3,1.6
			c0,0-3.8-0.3-6.2,0.3c-2.4,0.5-6.4,1.3-6.4,1.3l-4.6,3.3c0,0-3.3,1.8-3.8,3c-0.5,1.1-0.5,1.1-0.5,1.1l-5.9,3.3l-9.7,5.9l-0.3,1.3
			l1.3,3l2.1,2.8l0.3,2.6l-4.1-0.3l-3.8-0.5h-3l-5.1,4.9l-5.4,4.9l-1.6,3l-5.9,5.4l-4.1,0.8h-2.1h-3.6l-3-7l-2.1-3l-1.8-1.8h-2.4
			l-2.1,2.1l-3,4.1l-3.3,5.9l-0.8,3.8l-0.5,2.4v4.1v7.2c0,0,0.3,0.5,0.5,2.4c0.3,1.8,1.3,4.1,1.3,4.1l1.3,11l-8.9-8.4l-6.2-5.9
			l-11.3-3.3h-3.2l5.7,6.2l0.8,3.3c0,0-2.4,5.1-3.3,5.1c-0.8,0-2.4-0.3-2.4-0.3l-2.8-0.5c0,0-0.3,0.8-2.4,0.8
			c-2.1,0-7.8-0.3-7.8-0.3s-1.6-0.3-3,0.3c-1.3,0.5-3.6,1.3-3.6,1.3l-4.3,2.1l-5.1,2.4c0,0,0.3,1.1-1.3,1.8c-1.6,0.8-1.8,0.5-3,1.6
			c-1.1,1.1-1.1,1.3-2.4,2.1c-1.3,0.8-1.3,0.8-1.3,0.8l-1.8,0.5l-4.9-0.5l-2.1,1.6l-3.6,1.3l-3.3,4.1l-3.6,4.3l-2.1,2.8l-1.1,3.3
			l-6.7,3.6l-4.6-0.8c0,0-2.4-2.4-2.4-3.8c0-1.3-1.3-4.1-1.3-4.1l-0.3-1.8l-1.1-5.9l-1.3-1.8l8.2,3.6l4.6,0.3l6.2-0.8l3-2.6l0.5-2.8
			v-4.9l-4.6-4.9l-4.1-3.8l-5.1-3.6l-4.3-0.3h-5.4l-1.3-1.3l-1.3-1.6c0,0-3.7-5.9-5.4-4.1c0,0-8.7,7-3.3,22.1s4.3,31.8,3.3,37.2
			c-1.1,5.4-15.4,31.8-5,35.6s9.3,13.5,9.3,17.8c0,4.3,22.1,16.2,22.6,18.9c0.5,2.8-1.6,11.8-5.9,16.7s11.8,12.9,11.8,12.9
			s2.1,11.3-15.1,5.9s-38,1.6-26.6,14.1c0,0,4.9,4.9,19.2,3.3c14.3-1.6,5.8,9.2,2.5,17.8c-3.3,8.7,2.1,15.1,7,20.5
			c4.9,5.4,8.8,18.9,13,22.6c4.2,3.8,6.4,17.8,5.8,20.5c-0.5,2.6,31.8-5.4,44.7-22.6c12.9-17.2,9.7-10.8-3.8-15.1
			c-13.5-4.3-11.8,0-15.6,1.1c-3.8,1.1-11.3-11.3-11.3-15.1c0-3.8-4.3-12.9,20.5,3.8c0,0,6.7,6.4,18.4,6.4s18.3,1.1,18.3,1.1
			l8.7,6.4c0,0,0.5,9.7,8.7,7v2.8l3.8,12.4c0,0,5.4,25.4,13.5,23.7l4.3-3.8l2.6,10.1c0,0,5.4,3.8,5.1-3.3c-0.3-7.1-6.2-7.6-4.7-14.2
			c1.4-6.6-2.4-6.7,9.2-16.6c11.4-9.9,24.3-22,27.5-11.7c3.3,10.3,10.8,14.9,10.8,14.9l6.3,1.3l2.5,6.8c0,0,1.1,21.2,4.1,23.7
			c3,2.6,3,9.1,3,9.1l-5.9-1.8l-10.3-6.2c0,0-6.7-15.6-6.4-21.8c0.3-6.2-10.8,21.3,22.6,49.6c0,0,23.7,15.9,31.3,15.9
			c7.5,0,19.5,1.8,19.5,1.8l12.6,4.6l12.6-1.6l12.4-4.3l6.4-2.8l-31.3,1.3l-25.6-3.8l-20.5-7.2L241,437h6.4l-11-16.2l-10-17.2
			c0,0-2.8-14.1,1.3-14.3c4.1-0.3,12.1,8.9,12.1,8.9l1.3,4.1c0,0,17.2-0.3,12.6-18.9l-8.2-8.9l-2.4-4.3c0,0,1.3-7.5,9.2-8l0.3,5.9
			c0,0,1.6,4.1,7-0.3l1.8-5.7l4.6-3.8l8.4-2.6l11.6-7.2l4.6-14.1v-11.8c0,0-5.9-9.5-2.8-11.8c3.2-2.4,9.5-3.2,0.7-6.2
			c-0.3-0.1-0.7-0.3-1.1-0.3c-10.3-3.3-4.3-2.1-4.3-2.1V298l8.7-4.1l8.4,0.5l3.3,4.6l-1.3,4.3l4.6,3c0,0,1.3,9.5-0.8,10.3
			c-2.1,0.8,8.7,2.6,10.8-7.5l-1.8-3.6l-1.8-4.3l-2.1-3.6l0.8-3l3.8-2.5l4.3-6.6l8.7-2.1c0,0,20.3-16.2,23.1-41.3V235l-6.2-5.4
			l-4.6-4.6l0.3-3.6l1.8-5.7l14.3-13.8l11.6-0.8h12.4l7.8,1.6l4.6-1.1l3-8.9c0,0,10.3-10.8,15.1-2.1c0,0,0.5,3,4.3,0.5l4.9-3v4.9
			l-5.1,3.6l-7.8,9.5l-9.2,8.9l-3,6.4l0.8,18.5l-4.9,15.6l14.3-19.2l9.7-10.3l1.8-5.7c0,0,2.1-6.2,1.8-7.5c-0.3-1.3-0.5-6.2-0.5-6.2
			l3.3-6.4l7.2-5.1l7.2-0.3l4.9,0.8l11.3-7.5l7.8-5.7l6.4-1.3l3-4.1l-2.8-8l2.8-6.4l2.1-0.3l3.8-3.8c0,0,5.1,0.3,5.7,1.3
			c0.5,1.1,0.3,1.8,1.6,3.3c1.3,1.3,6.2,4.3,6.2,4.3l3.3,1.1v-5.1l3.3-1.8l3.8-2.1C500.1,159.2,498.1,149.2,491.4,148.4z"/>
	</g>
	<g>
		<path fill="#010101" d="M82,116.3h5.4l5.7-1.8l-4.1-5.7l2.1-10.3l1.3-6.7c0,0,4.6-6.7,5.1-7.5c0.5-0.8,4.6-10.8,4.6-10.8l7.5-7
			l5.4-3.3l10.5-5.9c8.4-9.7-2.4-9.7-2.4-9.7l-6.2,5.9l-4.3,2.1l-8.4,1.6l-7.8,5.1L89,68.6l-2.4,9.2l-4.1,9.1l-5.1,12v7.5l1.6,5.9
			L82,116.3z"/>
	</g>
	<g>
		<path fill="#010101" d="M346.4,299.9c-0.8,1.6-2.6,3.3-2.6,3.3l-4.3,1.8l-6.4,5.7l-4.9,1.8l-7,2.8l-4.9,4.1l-1.6,4.1v1.1l5.7,8.4
			l1.8-4.9l1.6-3.6c0,0,1.1-2.6,3.6-3.6c2.4-0.8,5.9-2.4,5.9-2.4s-0.3-1.3,7.2-4.1c7.5-2.6,7.5-2.6,7.5-2.6l3.3-2.6l3.6-5.4
			c0,0-0.5-1.3,0-4.1c0.5-2.8,1.6-5.1,1.6-5.1v-7.9v-1.8c0,0,8.9-5.7,10-6.4c1.1-0.8,8.9-7.5,9.7-7.8c0.8-0.3,0.8-0.3,0.8-0.3
			s-14.9,2.8-15.6,3.6c-0.8,0.8-0.8,0.8-0.8,0.8s-1.8,0.3-1.8-1.1c0-1.3,0,1.1-0.5-4.3c-0.5-5.4-0.5-7.2-0.5-7.2l-1.1-15.4l-0.5,3.4
			l-1.7,10.9c0,0,0.8,2.4,0,4.3c-0.8,1.8,0.8,2.1,0,4.3c-0.8,2.1,1.4,3-0.3,4.3c-1.7,1.3-1.4,2.4-2.5,4.1c-1.1,1.6-1.3,2.1-1.8,3.3
			c-0.5,1.1,0,2.4,0,2.4s-1.1,1.6-1.3,4.1c-0.3,2.4,0,6.4,0,6.4l-0.1,2.4C348.1,296.5,347.2,298.3,346.4,299.9z"/>
	</g>
	<g>
		<path fill="#010101" d="M275,410.3c-0.7,1.2-3.2,2.4-3.2,2.4s-9.1,7.8-10.5,8.5s-4.3,1.8-4.3,1.8l-1.6,5.5v5.5l2.6,4.2l6.7,0.8
			h6.6c0,0,1.2-0.7,2.4-2.2c1.2-1.6,0.8-1.6,1.2-2.8c0.4-1.2,1.4-2.2,2.2-3.2c0.8-0.9,1.4-4.6,1.4-4.6l3.4-13.9v-3.3l-2.6-1.1h-0.8
			C278.4,408.2,275.5,409.1,275,410.3z"/>
	</g>
	<g>
		<path fill="#010101" d="M291.7,371.6h-0.8h-2.4l-2.2,1.2v8.2l1.2,7.5l1.6,3.2l3.8,7.1l0.8,4.6l1.1,4.7l8.2,1.1
			c0,0,1.1-0.7,2.6-3.6c1.6-3,0-4.2,0-4.2v-3.2v-4.7l-3.9-5h-1.1l-4.7-3.9c0,0-2.4-1.2-3.2-2.6c-0.8-1.4,0-1.8,0-1.8l-0.8-2.6v-3.6
			v-2.2H291.7z"/>
	</g>
	<g>
		<path fill="#010101" d="M377.8,446.4l3.9-0.7l3.4-2.8l1.8-0.7l-2.8-7.5l-2.8,1.6l-6.3,2.6l-6.3,3.2l-3.4,0.7c0,0-1.8-1.8-3.9-2.6
			c-2.2-0.8-3.8-2-3.8-2l-9.5-3.4l-2.6-0.9h-9.1l-9.9-2l-8.9-0.9h-1.8l-4.3,2.4c0,0-3.9,3.4-2.2,5.8c0,0,4.6,0.8,6.7-0.8
			c2.2-1.6,5.4-2.8,5.4-2.8s2.4-1.4,5.4,0c3,1.3,6.6,2.8,7.4,3.6c0.8,0.8,4.6,3.6,4.6,3.6l9.9,9.1l5.1,3.9h4.7l3.2-3.8
			c0,0,3.2,1.2,3.8,2.2c0.7,1.1,4.6,4.7,5.4,5.1c0.8,0.4,4.6,0.8,4.6,0.8h6.2l5.5-1.4c0,0-3.9-1.4-7-2.4c-3-1.1-5.1-2-5.9-3
			c-0.8-1.1-1.2-3.8-1.2-3.8s-0.8-2.1,0-2.1C373.7,447.6,377.8,446.4,377.8,446.4z"/>
	</g>
</g>
</svg>
