<?xml version="1.0" encoding="utf-8"?>
<!-- Generator: Adobe Illustrator 18.1.0, SVG Export Plug-In . SVG Version: 6.00 Build 0)  -->
<svg version="1.1" id="Layer_1" xmlns="http://www.w3.org/2000/svg" xmlns:xlink="http://www.w3.org/1999/xlink" x="0px" y="0px"
	 viewBox="0 0 500 500" enable-background="new 0 0 500 500" xml:space="preserve">
<g>
	<path fill="#010101" d="M194.9,214.3L194.9,214.3C194.7,213.8,194.9,214.3,194.9,214.3z"/>
	<path fill="#010101" d="M486.8,378.8l-16.3-10.6l-5.6-7.8l-2.9-12l-3.5-12l-2.1-9.3l-7.8-13.5c0,0-6.4-0.7-5,17
		c1.4,17.8-24.8,10.6-24.8,2.1s5-16.3,5-16.3s0-10.6-7.1-12.8c-7.1-2.1-12.8-7.8-12.8-7.8l-7.1-5.5c0,0,2.1-3.8-1.4-3.8
		c-3.5,0-10.6,3.8-10.6,3.8l-12-3.8c0,0-6.4,8.5-4.3,14.9c2.1,6.4,5,16.3,5,16.3l-0.7,5.6l-2.9,5.6v6.4l11.4,14.1
		c0,0-0.7,17-12,20.5c-11.4,3.5-9.9,9.9-5.6,13.5c4.3,3.5,5.6,17,2.1,18.4c-3.5,1.4-14.9,9.1-19.1-6.4c-4.3-15.6,5-24.8-8.5-27.6
		c-13.5-2.9-17.8-5.6-19.9-7.1c-2.1-1.4-11.9-9.1-11.9-9.1l-11.5-2.1l-7.8-0.7l-4.3-7.1c0,0-14.1-5.6-12.8-15.6
		c1.4-9.9,4.3-23.4,8.5-28.4c4.3-5,9.9-11.4,9.9-11.4l6.4-13.5l7.1-3.5l9.1-5.6l5.6-12.8l1.4-10.6l4.3-8.5h3.5l7.1-9.1l12,9.1
		l6.4-9.1v-13.5c0,0-7.1-2.1-4.3-7.8c2.9-5.6,15.6-9.3,2.1-12.8c-13.5-3.5-23.4-4.3-24,5c-0.7,9.1-4.3,17-4.3,17l-7.1,7.8
		c0,0-4.3,0-4.3-10.6s-3.4-15.6-3.4-15.6l-3.8-6l-7.8-6l-7.1-7.8c0,0-1.4-19.9-6.4-24c-5-4.3-5-9.9-5-9.9l3.5-12c0,0,3.5,5,6.4,0
		c2.9-5,9.9-17.8,9.9-17.8s10.6-1.4,0-6.4c-10.6-5-22-4.3-22-4.3s-7.8,9.3-7.8,19.9c0,10.6,0,14.1,0,14.1l2.1,9.3
		c0,0,4.3,2.1,0.7,9.1c-3.5,7.1-5.6,12.8-5.6,17c0,4.3,2.9,12.8,2.9,12.8s6.4-1.4,6.4,6.4c0,7.8,12,12.8-0.7,26.3
		c0,0,2.9,19.1-14.1,4.3c0,0-5.6-2.9-21.3-1.4c-15.6,1.4-14.1-4.3-14.1-4.3l-8.5-4.3h-8.1l-5.6,1.4l-4.8,5.6
		c0.3,0.4,0.9,1.8,2.7,5.8c3.5,7.8,5.6,19.9-10.6,1.4c-16.3-18.4-12.8-7.8-20.5-5c-7.8,2.9-15.6,0.7-14.9-2.9
		c0.7-3.5,5.6-6.4,5.6-6.4l0.7-7.1l-1.4-3.5l-15.6-1.4c0,0-9.1-2.1-12.8-5c-3.5-2.9-12.8-6.4-12.8-6.4l-9.1-5c-0.4,0-1.2,0-3.5,0
		c-5,0-7.8,0-7.8,0l-5,5c0,0-3.5,2.1-5,0c-1.4-2.1-4.3-3.5-4.3-5.6c0-2.1,0-2.1,0-2.1s-14.1,1.4-21.3,11.4
		c-7.1,9.9-8.5,9.1-18.4,9.1s-16.3-0.7-16.3-0.7l-15.6-7.8L0,187.4v129c0,0,18.4,4.2,20.5,7.1c2.1,2.9,5,6.4,7.1,6.4
		s4.3-2.1,10.6,0.7s7.8,7.8,7.8,7.8l4.3,6.4l6.4,9.9l3.5,4.3c0,0,2.9-2.9,5.6,1.4c2.9,4.3,5,15.6,5,15.6l2.1,13.5
		c0,0,2.9-0.7,4.3,1.4c1.4,2.1,4.3,2.9,4.3,2.9l3.5,5.6l9.1,12l8.5,8.5l9.9,14.1h5h150.2l21.3,4.2h23.4l14.1,7.1l13.5,12l2.9,7.8
		v7.8l-4.3,10.6c0,0-2.1,9.1,16.3,3.5l10.6-5l14.1-3.5l5-7.8l7.8-4.3l20.5-5.1l12-9.8c0,0,7.1,13.2,13.5,9.8
		c6.4-3.4,13.5-11.9,13.5-11.9l-3.5-7.1v-8.5l3.5-6.4h-7.8l-7.8,3.5l-5.6,2.1l-10.6,2.1c0,0,15.6-16.3,18.4-17.8
		c2.9-1.4,22.7,4.3,22.7,4.3l13.5-4.4l8.5-9h9.9l5-5.6C498.2,402.8,506.7,392.9,486.8,378.8z"/>
	<path fill="#010101" d="M107.7,153.4c4.3,2.1,5.6,0,9.1-4.3c3.5-4.2,2.9-5,5-7.8c2.1-2.9,10.6-7.8,10.6-7.8v5v7.8l5,6.4v5.6v5.6
		c0,0,3.5,0,9.9,0s12,0,12,0s0.7,6.4,0.7,9.9c0,3.5-8.5,0-8.5,0s-5.6,2.1-8.5,5.6c-2.9,3.5,0,0-0.7,5c-0.7,5,0,0,0,2.9
		c0,2.9,12.8,5,12.8,5l8.5,5.8l3.5,0.7h16.3l11.4-0.7l6.3-8.1l13.5,0.7c0,0,7.2,6.7,12.2,8.1c5,1.4,14.1,0,14.1,0h9
		c4.8,0,2.2-7.8-9.8-7.1c-12,0.7,1.4-3.5-0.7-7.1c-2.1-3.5-5.6-4.2-5.6-4.2l-7.8-7.1v-3.5v-4.2l-4.3-8.5l-9.1-7.1l-1.4-9.9
		c0,0-2.1-4.2-1.4-10.6c0.7-6.4,1.4-3.5,2.1-9.1c0.7-5.6-0.7-9.1-0.7-9.1h-4.3l-9.1,5.6l-3.5,5v6.4l0.7,3.5c0,0,0.7,5.2,1,9.8
		c-0.7-1.7-2.2-2.6-3.9-6.3c-2.1-5-18.8-11.4-18.8-11.4l-10.8-4.3l-5-9.1h-8.5c0,0-5.6-2.9-7.1-7.1c-1.4-4.3-2.1-5-2.1-5
		s-11.4-1.4-19.1-7.7c-7.8-6.4-7.1,0-7.1,0h-7.8c0,0-2.9,0-3.5,2.9s-2.1,5-2.1,5l1.4,5l2.9,9.1l-5,7.1l-2.9,17l2.9,11.4
		C99.2,147.7,103.5,151.3,107.7,153.4z"/>
	<path fill="#010101" d="M334.4,273c4.4-3.3,5.4-5.6,5.4-5.6s4.4-2.9,5.1,0c0.7,2.9,3.9,5.8,3.9,5.8s7.1,3.8,7.1-1
		c0-4.8-2.5-9.5-2.5-9.5l-6.8-3.9l-4.7-2c0,0-4.8-1-6-1.8c-1-0.7-4.6-2-4.6-2s-15,3.3-10.7,13.9c4.3,10.7,4.3,16.1,10.7,15
		C331.4,281.8,330.1,276.3,334.4,273z"/>
	<path fill="#010101" d="M421.7,270.4l4.2,0.7c0,0,3.8,2.6,4.4,3.8c0.7,1,2.5,4.1,2.5,4.1s2.2,2.2,5.8,2.2c3.5,0,8,0,8,0
		s1.3-1.6,2-5.1c0.7-3.5-2-8.5-2-8.5s-2.2-3.3-3.5-4.8c-1.3-1.6-4.7-4.7-4.7-4.7s-1.6-2.6-1.6-3.9c0-1.3-3.8-5.1-5.4-7.1
		c-1.6-2-3.3-5.1-5.4-7.1c-2-2-6.4-1.3-6.4-1.3s-5.4-4.4-9.5-5.5c-4.2-1.2-8.2,0-8.2,0s-3.3,2.6-4.4,8.4c-1,5.8-3.9,8.4-3.9,8.4
		l-7.3,0.8c0,0-8.2-2.9-14,2.5c-5.8,5.4-3.3,9-1.3,10.1c2,1,6.7,1,6.7,1l7.3-2c4.1-5.5,9.8-2.6,9.8-2.6l7.1,6l4.8,6.1l3.8,6.1
		c0,0,4.8,8,14,12.7c9,4.7,10.2,0,10.2,0l-0.4-4.3c0,0-1.6-1.3-8.6-6.1c-7.1-4.8-1.6-2-2.5-2.6c-0.9-0.7-2.9-2.5-2.9-4.7
		C420.2,270.4,421.7,270.4,421.7,270.4z"/>
	<path fill="#010101" d="M364.6,141.9c-12.7,0-14-1-14-1v-2.5v-4.7c0,0,2,0.4,2-6.1c0-6.7-2-10.6-2-10.6l-6.9-5.5c0,0-7.1,0.4-7.7,0
		c-0.7-0.4-2.9,0-2.9,0s0.4,2.2,0,3.8c-0.4,1.6,0,4.2,0,4.2s-8,14.6-9.3,2.9c-1.3-11.8,8.6-14.6,0-13.1s-18.8,4.4-21,13.7
		c-2.2,9.3-3.9,28.4,2.5,35.2c6.4,6.9,8.2,10.5,8.2,10.5s-4.8,0.9,4.8,4.7c9.8,3.8,14.2,4.2,19.6,3.8c5.4-0.4,12.7-1.8,12.7-1.8
		l13.7-4.2c0,0,0.9-6.1,11.5,8.6c10.6,14.8,21.7,23.7,21.7,25c0,1.3,5.1,8.4,5.1,8.4s1.8,3.5,2.6,4.8c0.9,1.3,4.4,3.9,4.4,3.9
		s-0.9,0.9,3.9,2.9s8.4,3.5,8.4,3.5l7.6,5.5c0,0,0.3-1,6.9-1.4c6.7-0.4,9,0,9,0s1.6,7.6,1.6,10.1v6.4c0,0,2,6.8,3.1,5.5
		c1-1.3,1.6-3.8,9.5-10.5c8-6.7,11.1-5,8.2-11.5c-2.9-6.5-21.7-12.5-25.9-18c-4.2-5.5-5.1-1.6-11.1-9.3c-6-7.7-7.7-12.7-7.7-12.7
		l-6.9-8.6c0,0-0.3-8.6,2.5-13.7c2.6-5.1-1-4.7-1-4.7s-0.9,1-7.3,3.5c-6.4,2.5-9.5,0-9.5,0l-2.2-3.5l-8.6-9.3l-6.7-4.2l-2.5-7.3
		v-7.7c0,0-5.8-1.8-6.4-1.8c-0.7,0-3.3,0-3.3,0S377.2,141.9,364.6,141.9z"/>
	<path fill="#010101" d="M256.5,105.1l-6.5-0.7l-3.9-1.3l-3.3,1.3l-2.4,4.4l-2.4,6.1l-4.8,2.7v7.8v9.3l2.4,5.8c0,0,2.7,6.1,9.5,8.9
		c6.8,2.7,13.3-7.8,13.7-9.9c0.4-2.1,0-5.8,0-5.8l-4.1-8.2c-2.1-4.2-0.7-14-0.7-14L256.5,105.1z"/>
	<path fill="#010101" d="M264,39.1v5.5l3.4,1.7c0,0,3.4,1.7,5.5,3.4c2.1,1.7,8.5,3.8,8.5,3.8l3.1,5.5v7.2c0,0,0,7.8,0,9.9
		s2.4,3.8,3.4,4.4c1,0.7,4.8,3.1,4.8,3.1s2.7,2.4,3.8,4.1c1,1.6,14.4,4.6,14.4,4.6h9.1c0,0,2.5,1.3,24,0C365.7,91,357.4,76.8,356,69
		c-1.4-7.8-18-9.3-18-9.3l-15.2,4.4l-5.5,2.4l-10.2-3.4l-3.1-3.4c0,0-2.1-4.4-3.3-8.9c-1.2-4.4,0-1,0-1v-1.3l-2.2-2.7l-13.7-6.5
		l-5.5-4.8c0,0-2.7-1-5.8-3.1c-3.1-2.2-1.3,0.4-4.4,0.1c-3.1-0.4,0,0-5.1,3.1C258.9,37.4,264,39.1,264,39.1z"/>
	<path fill="#010101" d="M224.7,64l8.5,4.1l2.4,2.4l1.3,6.8c2.4,2.4,11,0,11,0s6.5-1.7,8.5-3.8c2.1-2.1,2.5-2.7,2.5-2.7v-6.8
		c0,0-1.8-1.3-3.8-2.6c-1.8-1.2-0.1-3.9,0-6.7c0.1-2.7-0.5-2.7-0.1-4.4c0.4-1.7,0-3.8,0-5.8c0-2.1-2.9-4.4-2.9-4.4h-5.9l-5.8,2.1
		l-7.2,3.4h-2.4l-8.9,1.3l-2.7,8.9c0,0,1.7,1.7,2.4,2.7C222.3,59.6,224.7,64,224.7,64z"/>
	<path fill="#010101" d="M264.4,78.4v3.4l3.4,5.8h4.8h2.7l3.1-6v-11l-3.1-6.5l-1-2.6c0,0-3.4,1.8-2.9,8.1
		C271.8,75.7,267.8,77.4,264.4,78.4z"/>
	<path fill="#010101" d="M116.7,56.2l15.4-2.4h1.3h5.1c0,0,5.5,4.4,7.2,5.5c1.7,1-0.4,4.1-0.4,4.1l-2.1,3.8c0,0-1.3,4.1-2.1,5.5
		c-0.7,1.3,5.5,5.9,5.5,5.9s5.5,0.3,6.5,0c1-0.3,6.1,3.3,6.1,3.3v1.8c0,0,0,5.1,0,6.7c0,1.6,2.7-0.1,2.7-0.1s7.8,0.4,9.5,0
		c1.7-0.4,8.9-4.4,8.9-4.4l2.1-3.4l2.4-1.6c0,0,4.1-0.5,9.3-0.1c5.1,0.4,9.3,0,9.3,0l6.5-7.8c3.1-3.8,1.3-9.3,1.3-9.3
		s-1.7-1.7-4.1-4.1c-2.4-2.4-4.4,0-5.5,0s-2.4-1-3.1-8.2c-0.7-7.2,0,0-1.3-2.7c-1.3-2.7-1.7-4.1-2.4-8.2c-0.7-4.1-5.8-4.4-5.8-4.4
		s-2.4,1-3.8,2.4c-1.3,1.3-1.3,6.8-1.3,6.8l0.4,6.1l1.3,6.5c0,0,4.1,5.5,4.4,7.2c0.4,1.7-2.4,3.1-2.4,3.1l-7.8,1.3
		c0,0-2.4-1.3-3.1-2.7c-0.7-1.3-1-5.1-2.5-10.3c-1.4-5.2-4.1-4.1-4.1-4.1l-4.4-1c0,0-4.4,0-8.5,0s-6.1-2.1-6.1-2.1l-2.4-1.3
		c0,0-1.7-1-2.4-2.4c-0.7-1.3,0-5.1,0-5.1s1.3-1,5.1-11.2s0.4-2.1,0.4-2.1v-2.1l-2.4-3.4h-4.3c0,0-8.9,2.7-13.3,4.8
		c-4.4,2.1-5.5,6.1-5.5,6.1s0,3.8-8.5,7.8s-7.6,11.6-7.6,11.6L116.7,56.2z"/>
	<path fill="#010101" d="M322.5,46.5l1.6-0.9l6.9-3.9c0,0,5.4,0,6.9,0c1.6,0,7.1,1,10.2,2.4c3.1,1.3-1-2.7,5.1,2.4
		c6.1,5.1,9.5,4.4,9.5,4.4s3.4-2.1,5.9-6.1c2.6-4.1,0-10.6,0-10.6l-10.1-8.9l-5.8-4.1l-11.2-4.4c-5.1,1-6.8,1.3-7.8,2.1
		c-1,0.7-1,0.7-1,0.7l-8.5,1.7l-1.7-7.8l-8.2-2.4H313v3.8v5.1c0,0,3.8,5.8,1.7,8.2c-2.1,2.4-4.4,2.9-4.4,2.9s-4.8,3.3-6.1,5
		c-1.3,1.7-2.1,4.1-2.1,4.1s1.3,2.1,2.1,3.1C304.8,44.2,313.3,53.4,322.5,46.5z"/>
</g>
</svg>
