<?xml version="1.0" encoding="utf-8"?>
<!-- Generator: Adobe Illustrator 18.1.0, SVG Export Plug-In . SVG Version: 6.00 Build 0)  -->
<svg version="1.1" id="Layer_1" xmlns="http://www.w3.org/2000/svg" xmlns:xlink="http://www.w3.org/1999/xlink" x="0px" y="0px"
	 viewBox="0 0 500 500" enable-background="new 0 0 500 500" xml:space="preserve">
<path fill="#010101" d="M496.3,403.9c-1.9-1.9-31.6,0-31.6,0h-21.9c0,0-20-2.4-17.7-4.9c2.4-2.4-15.8-14-15.8-16.4s0-10.4,0-13.4
	s9.8-13.9,9.8-13.9c12.8-15.8-17-37.1-26.8-37.7c-9.8-0.6-25.6,0-25.6,0s-3.6-1.3-7.3-5.5s0.6-14,9.8-28.6
	c9.1-14.7,8.5-34.7,3.6-36.5c-4.9-1.9-31.1,5.5-31.1,5.5l-3,6.6l-5.5,9.1c0,0-7.3,6-20.7,15.8c-13.4,9.8-24.3,0-24.3,0h-24.9v-16.4
	l-8.5-7.9l-15.2-17l-6.6-15.2l6.6-20v-34.1c0,0,0,0-7.9-9.8c-7.9-9.8-10.4-3-21.9-20s-4.3-5.5-8.5-10.6c-4.3-5.1-7.3-5.3-7.3-5.3
	s-3,0-10.9,0.6c-7.9,0.6-4.9,4.6-4.9,4.6s-3-0.4-8.5,0c0,0-3.6-5.3-9.8-11.3c-6.1-6.1-2.4-1.9-6.1-4.9c-3.6-3-1.9-4.9-8.5-10.4
	c-6.6-5.5-7.9-8.5-9.1-11.5c-1.3-3-14-3.6-14-3.6h-15l-6.1,7.3l-9.8,7.9h-3l-13.4-4.9l-8.5-7.3L52.9,83.7L45.7,76H20.1L4.9,79
	l-3,12.2c-4.3,3.6,0,28.6,0,28.6l13.4,16.4l12.8,26.2l12.8,12.8l15.2,12.2c0,0,6.6,17,13.4,27.3c6.6,10.4,18.3,13.4,23.1,9.8
	c4.9-3.6,0-6.6-7.3-26.2c-7.3-19.4-1.9-3-4.9-9.1c-3-6.1-16.4-21.9-16.4-21.9l-16.4-18.3L40.3,136c0,0-1.3-5.5-0.6-8.5
	c0.6-3,4.9-4.3,4.9-4.3s10.4,9.1,14,13.4c3.6,4.3,18.8,18.8,18.8,18.8s7.9,7.9,18.9,15.2c10.9,7.3,29.2,32.2,38.3,40.7
	s4.3,1.9,7.3,38.3c3,36.5,94.8,62.6,94.8,62.6s10.9,3,14.3,3c3.4,0,24.1,0.6,24.1,0.6l14.5,1.9l10.3,6.6l10.4,14l22.6,6.1
	c0,0,18.3,3,34.7,5.5c16.4,2.4,14,19.4,15.2,21.9c1.3,2.4,6.6,23.1,6.6,23.1l26.2,22.6l34.7,6l23.7-0.5c0,0,14,1.3,15.8,0
	c1.8-1.3,10.4-6.6,10.4-6.6S498.2,405.8,496.3,403.9z"/>
</svg>
