<?xml version="1.0" encoding="utf-8"?>
<!-- Generator: Adobe Illustrator 18.1.0, SVG Export Plug-In . SVG Version: 6.00 Build 0)  -->
<svg version="1.1" id="Layer_1" xmlns="http://www.w3.org/2000/svg" xmlns:xlink="http://www.w3.org/1999/xlink" x="0px" y="0px"
	 viewBox="0 0 500 500" enable-background="new 0 0 500 500" xml:space="preserve">
<g>
	<path fill="#010101" d="M495.9,359.3c-0.9-3.6,0-6.2,0-6.2l-15.9-3.6c0,0-8-4.4-12.5-8.9c-4.4-4.5-11.6-12.5-11.6-12.5l-6.2-4.4
		l-17.7-9.8l-7.1-8.9v-9.8v-16.8l-12.5-9.8c0,0-16.8-7.1-13.2-19.5c3.6-12.5-6.2-27.5-6.2-27.5h-21.2l-9.4,6.2l8.5,5.3l6.9,4.4v14.1
		c-34.9-16.8-27.3,12.5-27.3,12.5l1.8,22.1l-23-2.7l-16.8,8l-14.1,2.7l-9.8-7.1l-1.8-8.9l-5.3-4.4l-9.4-2.7v-7.1l-4.8-13.2
		c0,0-8,7.1-10.7,8.9c-2.7,1.8-4.4,7.1-4.4,7.1v4.4l1.8,9.8l5.3,14.1h-13.2l-12.5,0.9l-6.2,5.3l-3.6,13.2l-1.8,8l-8,5.3l-8,7.1
		l-18.6,11.6c0,0,8,19.5-16.8,15c-24.8-4.4-26.6,8-19.5,8.9c7.1,0.9,24.8,12.5,26.6,27.5c1.8,15,4.4,34.6-11.6,23
		c-15.9-11.6-41.7-1.8-46.2,0.9c-4.4,2.7-0.9,6.2-4.4,38.1c-3.6,31.9,35.5,28.4,35.5,28.4h8c0,0,0,0,9.8-0.9s7.1-6.2,7.1-6.2
		s5.3-5.3,10.8-9.8c5.4-4.5,0-2.7,0-2.7l0.8-2.7c0,0-1.8-13.2,0-15.9c1.8-2.7,7.1-5.3,7.1-5.3s0,0,3.6-1.8c3.6-1.8,8.9-4.4,8.9-4.4
		s0,0,2.7-1.8s4.1-4.4,4.1-4.4l1.2-8c0,0-2.7-5.3,0-5.3c2.7,0,5.3,0,5.3,0s0,12.5,15.9,2.7s20.4,0.9,20.4,0.9l-9.8,9.8v8v13.2
		c0,0,0,0,0,6.2c0,6.2,4.4,5.3,4.4,5.3l6.2,0.9c0,0,0,0,0.6-2.7c0.6-2.7,4.8-5.3,4.8-5.3s-0.9-5.3-3.6-8c-2.7-2.7,0-8,0-8v-6.2
		l4.4-5.3l4.4,0.9l11.6,1.8l5.3,5.3c0,0,4.5,2.7,8.9,5.3c4.4,2.7,13.2,14.1,13.2,14.1l-2.7,8.9l-6.2,6.2l-9.8,4.4l4.4,3.6l3.6,12.5
		l8-4.4l3.6-7.1l3.6-5.3l4.4-5.3l12.5-20.4l-8.9-9.8l-18.6-8c0,0-7.1-0.9-14.1-19.5c-7.1-18.6,8.9-15.9,8.9-15.9l6.2,7.1l11.6,10.7
		l5.3,3.6l10.7,3.6l5.3,4.4v3.6v10.7l4.4,8.9v3.6v5.3l4.4,7.1v5.3h3.6h8.9l6.2-5.3c0,0,2.7-10.7,0.4-15.9c-2.3-5.3,5.8-3.6,5.8-3.6
		h9.5l15.3-3.6l8.9-8c0,0-6.2-17.7,6.2-21.2c12.5-3.6,11.6-8.7,11.6-8.7c1.8-26.5,20.4-24,18.6-12.6c-1.8,11.6,3.6,10.7,3.6,10.7
		c16.8,7.1,14.1-8,14.1-8l5.3-10.7l8-5.3c0,0,8,0.9,11.6,0c3.6-0.9,6.2-4.4,15-8.9C504.8,366.4,496.8,362.8,495.9,359.3z"/>
	<path fill="#010101" d="M128.6,324c19.9-4.1,10.4-12.7,10.4-12.7l0.5-10.4l0.9-9l10.9-0.9c0,0,13.1,5.4,5.9,11.3
		c-7.2,5.9-8.1,12.7-8.1,12.7s-1.2,25.1,15.3,20.4h15.9h3.6v-3.6l9.8-7.1v-8.9v-7.1c0,0-6.2-6.2-8-12.5c-1.8-6.2-6.7-15.9-6.7-15.9
		l-14.7-19.5v-6.2v-8v-6.2v-4.9l-2.1-4.5l4.5-9.1l4.1-11.7c0,0-1.8-5.9-15.8,13.6c-14,19.5-22.2,15.4-24.9,19.5
		c-2.7,4.1-3.6,14.5,3.6,18.6c7.2,4.1,4.1,14.9-5.7,16.3s-20.2,17.7-18.9,25.8C110.5,312.1,108.7,328.1,128.6,324z"/>
	<path fill="#010101" d="M233.4,237.4h18.1c0-8.6,10.9-18.1,10.9-18.1l5.9-4.5l6.8,11.3l7.2,3.6l2.7,17.2v17.2c0,0,0,7.2,6.3,8.5
		c6.3,1.3,29.4-22.5,29.4-22.5l-4.5-6.8c0,0-0.9-12.2,6.6-17.7c7.5-5.4,5.7-17.2,5.3-19c-0.5-1.8-8.1-10.4-8.6-14.5
		c-0.5-4.1,3.3-24.4,3.3-24.4s9.8-11.8,16.1-14c6.3-2.3,8.6-8.1,8.6-8.1s1.4-20.8,12.7-27.6c11.3-6.8,19,4,19,4l-1.5,9.5l-7.5,11.8
		c0,0-10.4,4.5-16.7,21.7s-0.5,37.2-0.5,37.2s2.3,4.5,2.7,7.3c0.5,2.8,3.2,1.3,6.7,0c3.5-1.3,12,0,12,0s7.2-0.1,9.1,0
		c1.8,0.1,5.9-7.8,5.9-7.8s0,0,11.8-0.9c11.8-0.9,5.4-0.4,7.2-2.3c1.8-1.8,1.4-5.9,1.4-5.9l1.4-6.3l9.5-6.8V148c0,0,0,0-1.4-1.8
		s-2.7-5.4-2.7-5.4v-19.2l-2.3-9.9l-2.7-7.2l-0.9-12.2v-9.5c6.3-12.2-4.5-19-4.5-19c3.6-16.3,8.1-37.7,8.1-37.7
		c-9.1-46.7-74.8,2.7-74.8,2.7l-39.5,39.5l-5.9,34.9l-15.9,26.7l-42.7,40.4l-5.4,7.2l-5,17.6l2.7,34L233.4,237.4z"/>
	<path fill="#010101" d="M38.5,107.4c-5.5,1.9-8.6,5.7-8.6,5.7s-7.7,1.7-7.7-3.5s-5.4-7.7-5.4-7.7l-9.9,1.4L0,114.6l4,7.7l8.9,3.5
		l2.8,11.3c0,0-1.9,3.5,10.3,14.8c12.2,11.3,51.2-18.8,51.2-18.8C83.3,90.7,44,105.5,38.5,107.4z"/>
</g>
</svg>
