<?xml version="1.0" encoding="utf-8"?>
<!-- Generator: Adobe Illustrator 16.0.0, SVG Export Plug-In . SVG Version: 6.00 Build 0)  -->
<!DOCTYPE svg PUBLIC "-//W3C//DTD SVG 1.1//EN" "http://www.w3.org/Graphics/SVG/1.1/DTD/svg11.dtd">
<svg version="1.1" id="Layer_1" xmlns="http://www.w3.org/2000/svg" xmlns:xlink="http://www.w3.org/1999/xlink" x="0px" y="0px"
	 width="200px" height="200px" viewBox="0 0 200 200" enable-background="new 0 0 200 200" xml:space="preserve">
<path fill="#777777" d="M159.08,45.36l-3.04-1.44l-2.319-1.44l-3.48-2.6c0,0-2.04,0.88-3.2,0c-1.2-0.88-2.319,0-2.319,0l-5.24-0.4
	l-3.76-3.4L130,33.2h-1.76h-2.6l-2.881,3.48c0,0-8.96,2.32-8.119-3.48c0.879-5.8,3.479-5.48,3.479-5.48s1.76-3.48-2.32-6.68
	c-4.04-3.2-5.479-4.04-5.479-4.04h-5.801l-3.76-2.6l-3.2-2.6L97,9.8l-5.48-1.44h-1.76l-2.88-3.2c0,0-2.32,0.56-3.2,0
	c-0.88-0.56-4.6,0-4.6,0l-3.2-0.24L73,1.44L70.12,0h-1.2h-2.6L61.4,2l-4.12,0.56l-1.44,1.2l-3.2,3.2L50.6,9.28v4.04
	c0,0,0.88,0,0,1.44c-0.88,1.44,1.2,2,0,3.76c-1.2,1.76-2.6,4.6-2.6,4.6l-2,1.76l-2.32,2l-1.2,2.32l-1.76,2.6v1.44l1.2,3.2l0.32,1.2
	c0,0-1.76,3.76-1.44,4.6c0.32,0.88-0.04,4.36-0.04,4.36s0.32,0,2.04,1.44c1.76,1.44,3.48,3.76,3.48,3.76L54.4,68l1.44,0.88l3.2,2
	l3.2,1.44l3.2,3.2l1.2,1.44c0,0,1.44,9.2,0.88,14.48c0,0-3.2,33.56-6.68,42.281c-3.48,8.68,0,14.159,0,14.159l-1.52,6.92
	c0,0-0.12,4.36,0,6.681c0.12,2.319-0.04,4.92-0.04,4.92l-1.88,2.319l5.08,18.841l7.68,6.039l2,5.24c0,0,7.56,2.881,8.12,0
	c0.56-2.88-5.8-6.68-5.8-6.68L71,187.8l0.32-5.8l4.04-8.4l4.96-4.359l-3.8-7.561l1.44-2.88L82,153.32l2.32-6.12l3.76-4.36l2.04-3.48
	l8.96-2.6l3.199-2.88v-4.601v-3.199l6.681-2.32l6.12-7.56l3.76-4.921l1.439-2.6l2.32-0.88l1.76-4.36v-4.6l1.44-2.88l7.8-4.6h5.48
	l4.359-4.04l1.44-2.6l3.2-8.12v-6.92v-5.24l2.04-2l1.44-2.32l3.199-3.48l4.36-4.36c0,0-0.32-1.44,0-2.32c0.319-0.88,0-3.2,0-3.2
	L159.08,45.36z"/>
</svg>
