<?xml version="1.0" encoding="utf-8"?>
<!-- Generator: Adobe Illustrator 16.0.0, SVG Export Plug-In . SVG Version: 6.00 Build 0)  -->
<!DOCTYPE svg PUBLIC "-//W3C//DTD SVG 1.1//EN" "http://www.w3.org/Graphics/SVG/1.1/DTD/svg11.dtd">
<svg version="1.1" id="Layer_1" xmlns="http://www.w3.org/2000/svg" xmlns:xlink="http://www.w3.org/1999/xlink" x="0px" y="0px"
	 width="200px" height="200px" viewBox="0 0 200 200" enable-background="new 0 0 200 200" xml:space="preserve">
<path fill="#AAAAAA" stroke="#666666" stroke-miterlimit="10" d="M151.66,79.757l-1.312-0.767l-2.078-1.533c0,0-1.205,0.551-1.86,0
	c-0.657-0.545-1.313,0-1.313,0l-3.064-0.22l-2.297-2.078l-3.394-1.859h-1.093h-1.642l-1.751,2.079c0,0-5.471,1.314-4.925-2.079
	c0.548-3.5,2.08-3.28,2.08-3.28s1.094-2.081-1.313-3.94c-2.406-1.862-3.282-2.407-3.282-2.407h-3.393l-2.298-1.534l-1.86-1.64
	l-0.438-1.205l-3.282-0.767h-1.094l-1.751-1.859c0,0-1.313,0.438-1.859,0c-0.549-0.438-2.736,0-2.736,0l-1.859-0.11l-1.751-2.078
	l-1.751-0.767h-0.548h-1.642l-2.954,1.205l-2.407,0.436l-0.766,0.657l-1.86,1.862l-1.204,1.312v0.548
	c-1.094,0-3.501,0.109-3.501,0.109h-2.844c0,0-2.627-0.219-2.299-0.657c0.219-0.219-2.079-1.75-2.079-2.188c0-0.219,0-1.312,0-1.75
	c0-0.438,1.204-1.752,1.204-1.752c1.642-2.079-2.19-4.923-3.502-4.923c-1.203-0.11-3.392,0-3.392,0s-0.546-0.11-0.984-0.655
	c-0.548-0.551,0.109-1.753,1.205-3.831c1.202-1.86,1.093-4.489,0.545-4.707c-0.655-0.22-4.047,0.657-4.047,0.657l-0.437,0.767
	l-0.658,1.205c0,0-0.984,0.764-2.734,2.079c-1.752,1.314-3.064,0-3.064,0H59.09v-2.191l-1.093-1.092l-2.079-2.188l-0.766-2.079
	l0.766-2.628v-0.545c0.984,0.219,2.625,0.764,2.625,0.764s-2.625-4.705,5.799-7.55l3.283,0.11l5.58,0.657
	c0,0-1.094-1.205-0.436-2.297c0,0,5.58-1.532,6.893,0.546l2.079-0.984c0,0,2.408,1.312,2.626,1.53
	c0.109,0.219,0.438,2.848,0.438,2.848s3.063,4.702,4.048,4.702c0.766,0,2.298-2.078,0-5.578c0,0-4.158-5.035-1.641-8.974
	c0,0,4.595-5.471,5.8-5.909c0,0,1.202-1.313,0.438-2.735l-0.22-0.985l-1.093-1.86l-0.11-1.094c0,0,0-1.204,0.766-1.094
	c0,0,1.532-0.657,1.752-4.158l1.749-1.532c0,0,0.219-0.219,0.657-0.656l4.157-1.096l3.283-2.735c0,0,1.859,3.502,3.611,2.735
	c1.751-0.984,3.609-3.282,3.609-3.282l-0.982-1.861v-2.297l0.982-1.751h-2.187l-2.188,0.984l-1.532,0.547l-2.845,0.548
	c0,0,4.158-4.487,5.032-4.706c0.766-0.438,6.128,1.094,6.128,1.094l3.611-1.203l2.296-2.408h2.737l1.312-1.532
	c0,0,2.299-2.735-3.062-6.455l-4.488-2.846l-1.531-2.188l-0.767-3.282l-0.984-3.282l-0.547-2.408l-2.188-3.61
	c0,0-1.752-0.109-1.314,4.595c0.439,4.705-6.673,2.844-6.673,0.547c0-2.299,1.312-4.486,1.312-4.486s0-2.845-1.859-3.392
	c-1.86-0.548-3.392-2.189-3.392-2.189l-1.86-1.532c0,0,0.546-1.094-0.438-1.094c-0.985,0-2.846,1.094-2.846,1.094l-3.281-1.094
	c0,0-1.753,2.297-1.205,4.048c0.548,1.751,1.313,4.486,1.313,4.486l-0.108,1.533l-0.767,1.532v1.75l3.063,3.831
	c0,0-0.11,4.595-3.282,5.58c-3.065,0.985-2.735,2.735-1.532,3.611c1.095,0.985,1.532,4.596,0.547,5.033
	c-0.984,0.438-4.049,2.407-5.144-1.751c-1.203-4.158,1.314-6.785-2.297-7.44c-3.61-0.766-4.706-1.532-5.47-1.861
	c-0.548-0.437-3.284-2.407-3.284-2.407l-3.062-0.547l-2.19-0.11l-1.093-1.859c0,0-3.83-1.532-3.394-4.158
	c0.439-2.736,1.096-6.347,2.299-7.769c1.204-1.314,2.735-3.064,2.735-3.064l1.753-3.612l1.859-0.984l2.406-1.532l1.532-3.392
	l0.438-2.845l1.093-2.299h0.984l1.862-2.407l3.284,2.407l1.75-2.407v-4.158c0,0-1.86-0.546-1.096-2.188
	c0.768-1.531,4.159-2.406,0.548-3.502c-3.611-0.984-6.348-1.093-6.454,1.313c-0.11,2.409-1.096,4.597-1.096,4.597l-1.859,2.188
	c0,0-1.095,0-1.095-2.845s-0.986-4.158-0.986-4.158l-1.094-1.642l-2.187-1.642l-1.86-2.188c0,0-0.439-5.471-1.753-6.457
	c-1.312-1.094-1.312-2.735-1.312-2.735L64.89-92.8c0,0,0.985,1.312,1.75,0c0.767-1.313,2.736-4.706,2.736-4.706s2.846-0.437,0-1.751
	c-2.845-1.312-5.909-1.093-5.909-1.093s-2.189,2.408-2.189,5.471c0,2.845,0,3.829,0,3.829l0.548,2.409c0,0,1.094,0.546,0.109,2.406
	c-0.985,1.861-1.531,3.392-1.531,4.596c0,1.204,0.766,3.392,0.766,3.392s1.751-0.438,1.751,1.751c0,2.188,3.283,3.392-0.11,7.002
	c0,0,0.766,5.142-3.829,1.204c0,0-1.532-0.767-5.69-0.438c-4.158,0.328-3.829-1.094-3.829-1.094l-2.299-1.204h-2.297l-1.532,0.438
	l-1.313,1.53c0.11,0.11,0.219,0.547,0.656,1.642c0.986,2.079,1.533,5.471-2.844,0.438c-4.488-5.034-3.392-2.188-5.58-1.312
	c-2.189,0.875-4.16,0.109-4.049-0.767c0.11-0.984,1.533-1.75,1.533-1.75l0.109-1.861l-0.439-0.984l-4.158-0.438
	c0,0-2.406-0.548-3.392-1.313c-0.985-0.765-3.391-1.751-3.391-1.751l-2.408-1.313c-0.109,0-0.218,0-0.985,0
	c-1.312,0-2.188,0-2.188,0l-1.313,1.313c0,0-0.984,0.547-1.312,0c-0.438-0.547-1.204-0.985-1.204-1.532c0-0.546,0-0.546,0-0.546
	s-3.83,0.438-5.691,3.064c-1.86,2.735-2.298,2.406-5.033,2.406s-4.486-0.109-4.486-0.109l-4.158-2.188l-2.406-0.109l-7.771-3.393
	l-9.521-2.079h-6.784h-3.063c0,0,0.11,0.11-1.75,1.531c-1.862,1.313-2.955,1.532-3.394,2.408c-0.436,0.985,1.532,1.204,0,2.079
	c-1.532,0.875-1.313,0.767-2.407,1.203c-1.094,0.438-0.657-0.219-1.094,0.438c-0.437,0.655-1.203-0.438-0.657,1.203
	c0.548,1.532,0.11,1.313,1.312,2.298c1.206,0.985,3.394,1.751,3.394,1.751l1.532,2.08c0,0,1.094,0.984,0.984,1.532
	c-0.109,0.546-2.187,2.188-2.187,2.188l-1.751-0.657c0,0-0.766,0.438-1.204,0c-0.438-0.437-1.532-0.437-2.19,0
	c-0.654,0.547-1.529,0.109-1.639,0.657c-0.11,0.656,0.546,0.438,0,1.313c-0.548,0.875-0.768-0.438-0.548,0.984
	c0.219,1.313,1.094,2.626,1.203,2.626c0.109,0,0.548,0.438,1.205,0.438c0.657,0.109,3.392-0.11,3.83,0c0.438,0.109,1.205,0,2.407,0
	c1.205,0,2.408,0,2.408,0l-0.11,3.501c-1.641,0.547-2.955,0.985-4.048,1.095c-1.094,0.109-1.313-0.657-1.752,0
	c-0.436,0.656-1.093,1.313-1.312,1.86c-0.22,0.548-0.22,1.313-0.22,2.299c0,0.984,0.548,0.984,0.548,1.64
	c0,0.657,0.439,1.204,1.094,2.845c0.657,1.642,0,1.642,0.657,1.642c0.655,0,1.533-0.438,1.86,0.984
	c0.437,1.313-1.314,0.766,0.437,1.313c1.751,0.548,5.8,1.203,5.8,1.203s0.985-0.765,1.204,0c0.219,0.768,1.203,1.205,1.203,1.205
	s-3.392,5.472-3.939,5.581c-0.546,0.109-4.595,1.64-5.142,2.188c-0.657,0.547-2.08,1.313-2.408,1.75
	c-0.436,0.438-0.766,0.656-0.766,1.094c0,0.438,0.109,1.313,0.109,1.313h0.548c0,0,1.86,0.219,2.406,0
	c0.548-0.22-0.218-0.22,1.86-1.204c2.19-0.986,3.502-0.657,3.94-1.204c0.438-0.547-1.094,0,0.438-0.547
	c1.533-0.548,1.312-0.656,2.19-1.313c0.764-0.657,1.858-1.313,2.844-2.079c0.985-0.657,1.86-1.86,1.86-1.86s0.437,1.641,1.093,1.751
	c0.657,0.109,1.205,0.219,2.08,0c0.766-0.22,2.627-0.548,2.627-1.313c0-0.767-1.096-4.925-1.096-4.925l0.657-0.765
	c0,0,0.438-0.548,1.093-0.657c0.658-0.11,2.846-0.767,2.846-0.767l3.065-1.203c0,0,2.735-0.657,3.283-0.218
	c0.546,0.437,3.39,1.751,3.39,1.751s5.036,1.203,5.582,1.858c0.548,0.767,1.312,1.751,1.86,1.751c0.546,0,1.095-0.547,2.844,0.11
	c1.75,0.766,2.188,2.188,2.188,2.188l1.205,1.751l1.75,2.736l0.984,1.203c0,0,0.767-0.765,1.533,0.438
	c0.767,1.093,1.312,4.158,1.312,4.158l0.548,3.61c0,0,0.766-0.11,1.095,0.438c0.437,0.546,1.094,0.765,1.094,0.765l0.984,1.532
	l2.409,3.283l2.296,2.298l2.736,3.83h0.33c-0.439,0.986-0.986,1.86-1.643,2.845c0,0,0,4.487-1.312,5.142l2.845,13.132
	c0,0,5.033,2.845,4.596,5.47l0.766,0.11l-0.439,0.11l-0.436,1.64c-0.548,0.438,0,3.831,0,3.831l1.75,2.188l1.641,3.394l1.641,1.64
	l2.08,1.641c0,0,0.766,2.191,1.751,3.502c0.767,1.312,2.406,1.75,2.954,1.205c0.656-0.438,0-0.77-0.985-3.393
	c-0.985-2.629-0.218-0.438-0.657-1.206c-0.438-0.766-2.188-2.845-2.188-2.845l-2.19-2.407l-0.984-1.642c0,0-0.109-0.656-0.109-1.094
	c0.109-0.438,0.656-0.548,0.656-0.548s1.314,1.204,1.75,1.751c0.548,0.546,2.408,2.406,2.408,2.406s1.095,1.095,2.407,2.082
	c1.533,0.986,3.83,4.159,5.033,5.252c1.205,1.092,0.548,0.218,0.985,5.033c0.438,4.704,12.364,8.097,12.364,8.097
	s1.532,0.438,1.862,0.438c0.438,0,3.063,0.109,3.063,0.109l1.859,0.22l1.314,0.767l1.313,1.75l2.953,0.766
	c0,0,2.408,0.438,4.488,0.657c2.188,0.22,1.75,2.624,2.08,2.843c0.108,0.218,0.764,2.955,0.764,2.955l3.394,2.954l4.484,0.768
	l3.063-0.11c0,0,1.861,0.11,2.08,0c0.109,0,0.218-0.109,0.548-0.219c0,0.11-0.11,0.219-0.22,0.547c-0.547,0.767,0.657,1.205,0,2.298
	c-0.655,1.092-1.533,2.735-1.533,2.735L85.68,69.25l-1.313,1.205l-0.655,1.314l-1.094,1.53v0.767l0.657,1.859l0.109,0.657
	c0,0-1.094,2.298-0.766,2.736c0.108,0.547,0,2.626,0,2.626s0.108,0,1.204,0.767c1.094,0.767,2.078,2.297,2.078,2.297l4.925,9.631
	l0.766,0.545l1.86,1.205l1.86,0.767l1.858,1.859l0.657,0.765c0,0,0.767,5.47,0.547,8.644c0,0-1.86,20.025-3.938,25.167
	c-2.08,5.144,0,8.427,0,8.427l-0.985,4.159c0,0,0,2.623,0,3.938c0,1.312,0,2.954,0,2.954l-1.095,1.313l2.955,11.269l4.596,3.611
	l1.202,3.064c0,0,4.487,1.749,4.925,0c0.437-1.75-3.502-3.941-3.502-3.941l-2.079-2.622l0.108-3.394l2.409-5.032l2.953-2.63
	l-2.297-4.484l0.766-1.75l2.408-3.282l1.312-3.612l2.298-2.627l1.202-2.077l5.473-1.641l1.86-1.752v-2.737v-2.296l3.939-1.314
	l3.609-4.485l2.3-2.954l0.764-1.532l1.313-0.546l1.095-2.626v-2.736l0.766-1.752l4.597-2.736h3.281l2.627-2.403l0.767-1.535
	l1.859-4.923v-4.159v-3.061l1.203-1.205l0.768-1.312l1.858-2.081l2.627-2.626c0,0-0.108-0.764,0-1.314c0.107-0.545,0-1.859,0-1.859
	l0.107-0.763L151.66,79.757z M66.421-8.656l0.985,0.109h-1.094C66.312-8.547,66.421-8.547,66.421-8.656z"/>
</svg>
