<?xml version="1.0" encoding="utf-8"?>
<!-- Generator: Adobe Illustrator 18.1.0, SVG Export Plug-In . SVG Version: 6.00 Build 0)  -->
<svg version="1.1" id="Layer_1" xmlns="http://www.w3.org/2000/svg" xmlns:xlink="http://www.w3.org/1999/xlink" x="0px" y="0px"
	 viewBox="0 0 500 500" enable-background="new 0 0 500 500" xml:space="preserve">
<g>
	<path fill="#010101" d="M83.5,164.6L83.5,164.6C83.5,164.4,83.5,164.6,83.5,164.6z"/>
	<path fill="#010101" d="M62,149.5c1.1,0.5,1.4,0,2.2-1.1c0.9-1,0.7-1.2,1.2-2c0.5-0.7,2.6-2,2.6-2v1.2v2l1.2,1.6v1.4v1.4
		c0,0,0.9,0,2.5,0s3,0,3,0s0.1,1.6,0.1,2.5s-2.1,0-2.1,0s-1.4,0.5-2.1,1.4c-0.7,0.9,0,0-0.1,1.2s0,0,0,0.7c0,0.7,3.1,1.2,3.1,1.2
		l2.1,1.4l0.9,0.1h4.1l2.8-0.1l1.6-2l3.3,0.1c0,0,1.7,1.6,3,2c1.2,0.4,3.5,0,3.5,0h2.2c1.2,0,0.6-2-2.4-1.7c-3,0.1,0.4-0.9-0.1-1.7
		c-0.5-0.9-1.4-1.1-1.4-1.1l-2-1.7v-0.9v-1l-1-2.1l-2.2-1.7l-0.4-2.5c0,0-0.5-1-0.4-2.6c0.1-1.6,0.4-0.9,0.5-2.2
		c0.1-1.4-0.1-2.2-0.1-2.2h-1.1l-2.2,1.4l-0.9,1.2v1.6l0.1,0.9c0,0,0.1,1.2,0.2,2.5c-0.1-0.4-0.6-0.6-1-1.6
		c-0.5-1.2-4.7-2.8-4.7-2.8l-2.7-1l-1.2-2.2h-2.1c0,0-1.4-0.7-1.7-1.7c-0.4-1-0.5-1.2-0.5-1.2s-2.8-0.4-4.7-1.9c-2-1.6-1.7,0-1.7,0
		h-2c0,0-0.7,0-0.9,0.7c-0.1,0.7-0.5,1.2-0.5,1.2l0.4,1.2l0.7,2.2l-1.2,1.7l-0.7,4.2l0.7,2.8C60,148.1,61,149,62,149.5z"/>
	<path fill="#010101" d="M119.4,177.7c0,0,1.1-0.7,1.2,0c0.1,0.7,1,1.5,1,1.5s1.7,1,1.7-0.2s-0.6-2.4-0.6-2.4l-1.7-1l-1.1-0.5
		c0,0-1.2-0.2-1.5-0.5c-0.2-0.1-1.1-0.5-1.1-0.5s-3.7,0.7-2.6,3.5c1.1,2.6,1.1,4,2.6,3.7c0,0-0.4-1.4,0.7-2.2
		C119.2,178.2,119.4,177.7,119.4,177.7z"/>
	<path fill="#010101" d="M139.6,178.4l1,0.1c0,0,1,0.6,1.1,0.9c0.1,0.2,0.6,1,0.6,1s0.5,0.5,1.5,0.5c0.9,0,2,0,2,0s0.4-0.4,0.5-1.2
		c0.1-0.9-0.5-2.1-0.5-2.1s-0.5-0.9-0.9-1.2c-0.4-0.4-1.1-1.1-1.1-1.1s-0.4-0.6-0.4-1s-1-1.2-1.4-1.7c-0.4-0.5-0.9-1.2-1.4-1.7
		c-0.5-0.5-1.6-0.4-1.6-0.4s-1.4-1.1-2.4-1.4c-1-0.2-2,0-2,0s-0.9,0.6-1.1,2.1c-0.2,1.5-1,2.1-1,2.1l-1.9,0.2c0,0-2-0.7-3.5,0.6
		c-1.4,1.4-0.9,2.2-0.4,2.5c0.5,0.2,1.6,0.2,1.6,0.2l1.9-0.5c1-1.4,2.4-0.6,2.4-0.6l1.7,1.5l1.2,1.5l1,1.5c0,0,1.2,2,3.5,3.1
		c2.2,1.2,2.5,0,2.5,0l-0.1-1.1c0,0-0.4-0.4-2.1-1.5c-1.7-1.2-0.4-0.5-0.6-0.6c-0.2-0.1-0.7-0.6-0.7-1.1
		C139.3,178.4,139.6,178.4,139.6,178.4z"/>
	<path fill="#010101" d="M125.5,146.6c-3.1,0-3.5-0.2-3.5-0.2v-0.6v-1.1c0,0,0.5,0.1,0.5-1.5c0-1.6-0.5-2.6-0.5-2.6l-1.7-1.4
		c0,0-1.7,0.1-1.9,0c-0.1-0.1-0.7,0-0.7,0s0.1,0.5,0,1c-0.1,0.4,0,1,0,1s-2,3.6-2.4,0.7c-0.4-2.8,2.1-3.6,0-3.2
		c-2.1,0.4-4.7,1.1-5.2,3.3c-0.5,2.4-1,7.1,0.6,8.7c1.6,1.7,2,2.6,2,2.6s-1.2,0.2,1.2,1.1c2.4,1,3.6,1,4.8,1
		c1.4-0.1,3.1-0.5,3.1-0.5l3.3-1c0,0,0.2-1.5,2.8,2.1c2.6,3.7,5.3,5.8,5.3,6.2c0,0.4,1.2,2.1,1.2,2.1s0.5,0.9,0.6,1.2
		c0.2,0.4,1.1,1,1.1,1s-0.2,0.2,1,0.7c1.2,0.5,2.1,0.9,2.1,0.9l1.9,1.4c0,0,0-0.2,1.7-0.4c1.6-0.1,2.2,0,2.2,0s0.4,1.9,0.4,2.5v1.6
		c0,0,0.5,1.7,0.7,1.4c0.2-0.4,0.4-1,2.4-2.6c2-1.6,2.7-1.2,2-2.8c-0.7-1.6-5.3-3.1-6.4-4.5c-1-1.4-1.2-0.4-2.7-2.4
		c-1.5-1.9-1.9-3.1-1.9-3.1l-1.7-2.1c0,0,0-2.1,0.6-3.3s-0.2-1.1-0.2-1.1s-0.2,0.2-1.9,0.9c-1.6,0.6-2.4,0-2.4,0l-0.5-0.9l-2.1-2.4
		l-1.6-1l-0.6-1.9v-1.9c0,0-1.4-0.4-1.6-0.4c-0.1,0-0.9,0-0.9,0S128.6,146.6,125.5,146.6z"/>
	<path fill="#010101" d="M98.8,137.6l-1.6-0.1l-1-0.4l-0.9,0.4l-0.6,1.1l-0.6,1.5l-1.1,0.6v2v2.2l0.6,1.5c0,0,0.6,1.5,2.4,2.2
		c1.7,0.6,3.3-2,3.3-2.5c0.1-0.5,0-1.5,0-1.5l-1-2c-0.5-1-0.1-3.5-0.1-3.5L98.8,137.6z"/>
	<path fill="#010101" d="M100.6,121.2v1.4l0.9,0.4c0,0,0.9,0.4,1.4,0.9c0.5,0.4,2.1,1,2.1,1l0.7,1.4v1.7c0,0,0,2,0,2.5
		c0,0.5,0.6,0.9,0.9,1.1c0.2,0.1,1.1,0.7,1.1,0.7s0.7,0.6,1,1c0.2,0.4,3.6,1.1,3.6,1.1h2.2c0,0,0.6,0.4,5.9,0s3.3-3.8,3-5.7
		c-0.4-2-4.5-2.2-4.5-2.2l-3.7,1.1l-1.4,0.6l-2.5-0.9l-0.7-0.9c0,0-0.5-1.1-0.7-2.2c-0.2-1.1,0-0.2,0-0.2v-0.4l-0.6-0.6l-3.3-1.6
		l-1.4-1.2c0,0-0.7-0.2-1.5-0.7c-0.7-0.5-0.4,0.1-1.1,0c-0.7-0.1,0,0-1.2,0.7C99.4,120.9,100.6,121.2,100.6,121.2z"/>
	<path fill="#010101" d="M91,127.4l2.1,1l0.6,0.6l0.4,1.7c0.6,0.6,2.7,0,2.7,0s1.6-0.4,2.1-0.9c0.5-0.5,0.6-0.6,0.6-0.6v-1.9
		c0,0-0.5-0.4-0.9-0.6c-0.5-0.2,0-1,0-1.6c0-0.6-0.1-0.6,0-1.1c0.1-0.4,0-1,0-1.5s-0.7-1.1-0.7-1.1h-1.5l-1.4,0.5l-1.7,0.9h-0.6
		l-2.2,0.4l-0.6,2.2c0,0,0.4,0.4,0.6,0.6C90.3,126.3,91,127.4,91,127.4z"/>
	<path fill="#010101" d="M102.5,128.8c0.1,1.5-0.9,2-1.7,2.2v0.9l0.9,1.4h1.2h0.7l0.7-1.5V129l-0.7-1.6l-0.2-0.6
		C103.2,126.8,102.4,127.2,102.5,128.8z"/>
	<path fill="#010101" d="M64.2,125.4l3.8-0.6h0.4h1.2c0,0,1.4,1.1,1.7,1.4c0.4,0.2-0.1,1-0.1,1l-0.5,1c0,0-0.4,1-0.5,1.4
		c-0.1,0.4,1.4,1.5,1.4,1.5s1.4,0.1,1.6,0c0.2-0.1,1.5,0.9,1.5,0.9v0.5c0,0,0,1.2,0,1.6c0,0.4,0.6,0,0.6,0s2,0.1,2.4,0
		c0.4-0.1,2.2-1.1,2.2-1.1l0.5-0.9l0.6-0.4c0,0,1-0.1,2.2,0c1.2,0.1,2.2,0,2.2,0l1.6-2c0.7-1,0.4-2.2,0.4-2.2s-0.4-0.4-1-1
		s-1.1,0-1.4,0c-0.2,0-0.6-0.2-0.7-2c-0.1-1.7,0,0-0.4-0.7c-0.4-0.6-0.4-1-0.6-2c-0.1-1-1.5-1.1-1.5-1.1s-0.6,0.2-1,0.6
		c-0.4,0.4-0.4,1.7-0.4,1.7l0.1,1.5l0.4,1.6c0,0,1,1.4,1.1,1.7c0.1,0.4-0.6,0.7-0.6,0.7l-2,0.4c0,0-0.6-0.4-0.7-0.6
		c-0.1-0.4-0.2-1.2-0.6-2.6c-0.4-1.2-1-1-1-1l-1.1-0.2c0,0-1.1,0-2.1,0c-1,0-1.5-0.5-1.5-0.5l-0.6-0.4c0,0-0.4-0.2-0.6-0.6
		c-0.1-0.4,0-1.2,0-1.2s0.4-0.2,1.2-2.8c0.9-2.5,0.1-0.5,0.1-0.5v-0.5L72,117h-1c0,0-2.2,0.7-3.3,1.2c-1.1,0.5-1.4,1.5-1.4,1.5
		s0,0.9-2.1,2c-2.1,1-1.9,2.8-1.9,2.8L64.2,125.4z"/>
	<path fill="#010101" d="M115.1,123.1l0.4-0.2l1.7-1c0,0,1.4,0,1.7,0c0.4,0,1.7,0.2,2.5,0.6c0.7,0.4-0.2-0.7,1.2,0.6
		c1.5,1.2,2.4,1.1,2.4,1.1s0.9-0.5,1.5-1.5c0.6-1,0-2.6,0-2.6l-2.5-2.2l-1.4-1l-2.8-1.1c-1.2,0.2-1.7,0.4-2,0.5
		c-0.2,0.1-0.2,0.1-0.2,0.1l-2.1,0.4l-0.4-2l-2-0.6h-0.4v0.9v1.2c0,0,0.9,1.5,0.4,2c-0.5,0.6-1.1,0.7-1.1,0.7s-1.2,0.7-1.5,1.2
		c-0.4,0.4-0.5,1-0.5,1s0.4,0.5,0.5,0.7C110.8,122.5,112.9,124.8,115.1,123.1z"/>
	<path fill="#010101" d="M222.9,209.8c3.6-0.7,1.9-2.4,1.9-2.4l0.1-1.9l0.1-1.6l2-0.1c0,0,2.4,1,1.1,2.1c-1.4,1.1-1.5,2.4-1.5,2.4
		s-0.2,4.6,2.7,3.7h2.8h0.6v-0.6l1.7-1.2v-1.6v-1.2c0,0-1.1-1.1-1.5-2.2c-0.4-1.1-1.2-3-1.2-3l-2.7-3.6v-1.1v-1.5v-1.1v-0.9
		l-0.4-0.9l0.9-1.6l0.7-2.1c0,0-0.4-1.1-2.8,2.5c-2.6,3.6-4.1,2.8-4.6,3.6c-0.5,0.7-0.6,2.6,0.6,3.3c1.4,0.7,0.7,2.7-1,3
		c-1.7,0.2-3.7,3.2-3.5,4.7C219.6,207.6,219.2,210.5,222.9,209.8z"/>
	<path fill="#010101" d="M206.5,170.4c-1,0.4-1.6,1-1.6,1s-1.4,0.2-1.4-0.6c0-1-1-1.4-1-1.4l-1.9,0.2l-1.2,2.1l0.7,1.4l1.6,0.6
		l0.5,2.1c0,0-0.4,0.6,1.9,2.7c2.2,2.1,9.3-3.5,9.3-3.5C214.7,167.3,207.5,170,206.5,170.4z"/>
	<path fill="#010101" d="M446.2,328.2l-1.4-0.9l-0.4-1c0,0-1.6-0.9-2.1-1c-0.6-0.1,0-1.5,0-1.5s-0.2-0.7-0.6-1.2
		c-0.4-0.5-1.1-0.9-1.1-0.9l-0.6-0.7l-0.5-0.5c0,0-1.6-0.6-1.7-1c-0.2-0.4-0.9-3-0.9-3l-1.1-0.7l-1.7-3.2l-1.2-3.6l-1.4,2v1.4v3.6
		l-1,2.6l-1.5-0.7c0,0-0.2-1.2-2-1.2s-3-1.4-2.4-2.7c0.6-1.4,0.2-1.1,0.2-1.1s0.2-0.7,0-1.7c-0.2-1-1.1-0.6-2.1-0.6
		c-1,0-2.7,0-2.7,0h-2.1h-1.5l-0.1,2.1l-1,1.2l-1.5-0.1l-1.1-0.7h-1.5l-2,1.9l-3.1,3.3l-1.6,1.5l-1,2.2c0,0,0,0-6.2,1.6
		c-6.2,1.6-5,6.3-5,6.3v1.4l1.2,2.5l1.6,3.8l0.9,2.4c-0.4,2.2-1.7,3.6,0,5.3c1.6,1.7,2.2-1,5.1-1c2.8,0.1,1.4,1,8.2-2.2
		s12.3,0,12.3,0l1.7,3.2l0.7,0.2l1.9,0.6c0,0,1.5,0.2,1.7,0.6c0.2,0.2,0.4,0.5,0.5,1s0.2,1,0.2,1.2c0,0.2,0.4,0.6,0.4,1
		c0,0.2,1.7,1.7,1.7,1.7s1.4,0.5,1.6,0.4c0.2-0.1,1.7-0.4,1.7-0.4h2.1h0.6c0,0,1.1,0,2,0s0.7,0,1.4-0.5s1.4,0.1,1.9,0
		c0.5-0.1,1.1-1.1,1.1-1.1l0.6-1.6l0.5-3.1c0,0,0,0,2.8-4s1.4-12.1,1.4-12.1L446.2,328.2z"/>
	<path fill="#010101" d="M438.5,355.4h-1.7c-1.7,0.5-0.7,3.3-0.7,3.3c0.2,2.7,4.3,2.5,5,0.4C441.5,357,438.5,355.4,438.5,355.4z"/>
	<path fill="#010101" d="M480.5,348.4c-0.6-0.5-1.7-1.1-1.7-1.1l-1.6-1l-1-0.4h-1.7l-0.4,0.7c0,0,1.2,1.7,1.7,2.1
		c0.5,0.5,0.9,0.9,0.9,1.4c0.1,0.6,0.4,1.5,0.4,1.6c0,0.1,0.4,0.5-0.6,1.6c-1,1.1-1.6,2.1-1.6,2.1l-1.4,1.2l-1.7,2.1l-0.6,1v0.9
		l-1.4,0.4l-1,0.5l-0.6,0.5l-1.7,1.7c0,0,0.1,0.6,0,1c-0.1,0.4,0,1,0,1l1,0.9c0,0-0.1-0.1,0.6,0c0.6,0.2,0.9,0.2,1.9,0
		c1-0.1,1.2-0.5,1.9-0.9c0.6-0.5,1-1.2,1-1.2s1-0.4,0.6-0.7c-0.2-0.4,0-0.5,0-1s0-1,0-1l1.1-1l0.6-1l0.6-1.7l0.9-0.5l2-1.4
		c0,0,0.9,0.1,1.2-0.7c0.4-0.9,0.6-1.7,0.6-1.7l1-1.9v-2.1C481.6,349.5,481.1,348.8,480.5,348.4z"/>
	<path fill="#010101" d="M183.7,300.5l-1.2-0.7l-1.9-1.4c0,0-1.1,0.5-1.7,0s-1.2,0-1.2,0l-2.8-0.2l-2.1-1.9l-3.1-1.7h-1h-1.5
		l-1.6,1.9c0,0-5,1.2-4.5-1.9c0.5-3.2,1.9-3,1.9-3s1-1.9-1.2-3.6c-2.2-1.7-3-2.2-3-2.2h-3.1l-2.1-1.4l-1.7-1.5l-0.4-1.1l-3-0.7h-1
		l-1.6-1.7c0,0-1.2,0.4-1.7,0c-0.5-0.4-2.5,0-2.5,0l-1.7-0.1l-1.6-1.9l-1.6-0.7h-0.5h-1.5l-2.7,1.1l-2.2,0.4l-0.7,0.6l-1.7,1.7
		l-1.1,1.2v0.5c-1,0-3.2,0.1-3.2,0.1h-2.6c0,0-2.4-0.2-2.1-0.6c0.2-0.2-1.9-1.6-1.9-2c0-0.2,0-1.2,0-1.6c0-0.4,1.1-1.6,1.1-1.6
		c1.5-1.9-2-4.5-3.2-4.5c-1.1-0.1-3.1,0-3.1,0s-0.5-0.1-0.9-0.6c-0.5-0.5,0.1-1.6,1.1-3.5c1.1-1.7,1-4.1,0.5-4.3
		c-0.6-0.2-3.7,0.6-3.7,0.6l-0.4,0.7l-0.6,1.1c0,0-0.9,0.7-2.5,1.9s-2.8,0-2.8,0h-3v-2l-1-1l-1.9-2l-0.7-1.9l0.7-2.4v-0.5
		c0.9,0.2,2.4,0.7,2.4,0.7s-2.4-4.3,5.3-6.9l3,0.1l5.1,0.6c0,0-1-1.1-0.4-2.1c0,0,5.1-1.4,6.3,0.5l1.9-0.9c0,0,2.2,1.2,2.4,1.4
		c0.1,0.2,0.4,2.6,0.4,2.6s2.8,4.3,3.7,4.3c0.7,0,2.1-1.9,0-5.1c0,0-3.8-4.6-1.5-8.2c0,0,4.2-5,5.3-5.4c0,0,1.1-1.2,0.4-2.5
		l-0.2-0.9l-1-1.7l-0.1-1c0,0,0-1.1,0.7-1c0,0,1.4-0.6,1.6-3.8l1.6-1.4c0,0,0.2-0.2,0.6-0.6l3.8-1l3-2.5c0,0,1.7,3.2,3.3,2.5
		c1.6-0.9,3.3-3,3.3-3l-0.9-1.7v-2.1l0.9-1.6h-2l-2,0.9l-1.4,0.5l-2.6,0.5c0,0,3.8-4.1,4.6-4.3c0.7-0.4,5.6,1,5.6,1l3.3-1.1l2.1-2.2
		h2.5l1.2-1.4c0,0,2.1-2.5-2.8-5.9l-4.1-2.6l-1.4-2l-0.7-3l-0.9-3l-0.5-2.2l-2-3.3c0,0-1.6-0.1-1.2,4.2c0.4,4.3-6.1,2.6-6.1,0.5
		c0-2.1,1.2-4.1,1.2-4.1s0-2.6-1.7-3.1c-1.7-0.5-3.1-2-3.1-2l-1.7-1.4c0,0,0.5-1-0.4-1s-2.6,1-2.6,1l-3-1c0,0-1.6,2.1-1.1,3.7
		c0.5,1.6,1.2,4.1,1.2,4.1l-0.1,1.4l-0.7,1.4v1.6l2.8,3.5c0,0-0.1,4.2-3,5.1c-2.8,0.9-2.5,2.5-1.4,3.3c1,0.9,1.4,4.2,0.5,4.6
		c-0.9,0.4-3.7,2.2-4.7-1.6c-1.1-3.8,1.2-6.2-2.1-6.8c-3.3-0.7-4.3-1.4-5-1.7c-0.5-0.4-3-2.2-3-2.2l-2.8-0.5l-2-0.1l-1-1.7
		c0,0-3.5-1.4-3.1-3.8c0.4-2.5,1-5.8,2.1-7.1c1.1-1.2,2.5-2.8,2.5-2.8l1.6-3.3l1.7-0.9l2.2-1.4l1.4-3.1l0.4-2.6l1-2.1h0.9l1.7-2.2
		l3,2.2l1.6-2.2v-3.8c0,0-1.7-0.5-1-2c0.7-1.4,3.8-2.2,0.5-3.2c-3.3-0.9-5.8-1-5.9,1.2c-0.1,2.2-1,4.2-1,4.2l-1.7,2c0,0-1,0-1-2.6
		s-0.9-3.8-0.9-3.8l-1-1.5l-2-1.5l-1.7-2c0,0-0.4-5-1.6-5.9c-1.2-1-1.2-2.5-1.2-2.5l0.9-3c0,0,0.9,1.2,1.6,0
		c0.7-1.2,2.5-4.3,2.5-4.3s2.6-0.4,0-1.6c-2.6-1.2-5.4-1-5.4-1s-2,2.2-2,5c0,2.6,0,3.5,0,3.5l0.5,2.2c0,0,1,0.5,0.1,2.2
		c-0.9,1.7-1.4,3.1-1.4,4.2c0,1.1,0.7,3.1,0.7,3.1s1.6-0.4,1.6,1.6c0,2,3,3.1-0.1,6.4c0,0,0.7,4.7-3.5,1.1c0,0-1.4-0.7-5.2-0.4
		s-3.5-1-3.5-1l-2.1-1.1h-2.1l-1.4,0.4l-1.2,1.4c0.1,0.1,0.2,0.5,0.6,1.5c0.9,1.9,1.4,5-2.6,0.4c-4.1-4.6-3.1-2-5.1-1.2
		s-3.8,0.1-3.7-0.7c0.1-0.9,1.4-1.6,1.4-1.6l0.1-1.7l-0.4-0.9l-3.8-0.4c0,0-2.2-0.5-3.1-1.2c-0.9-0.7-3.1-1.6-3.1-1.6l-2.2-1.2
		c-0.1,0-0.2,0-0.9,0c-1.2,0-2,0-2,0l-1.2,1.2c0,0-0.9,0.5-1.2,0c-0.4-0.5-1.1-0.9-1.1-1.4c0-0.5,0-0.5,0-0.5s-3.5,0.4-5.2,2.8
		c-1.7,2.5-2.1,2.2-4.6,2.2s-4.1-0.1-4.1-0.1l-3.8-2l-2.2-0.1l-7.1-3.1l-8.7-1.9h-6.2h-2.8c0,0,0.1,0.1-1.6,1.4
		c-1.7,1.2-2.7,1.4-3.1,2.2c-0.4,0.9,1.4,1.1,0,1.9s-1.2,0.7-2.2,1.1c-1,0.4-0.6-0.2-1,0.4s-1.1-0.4-0.6,1.1
		c0.5,1.4,0.1,1.2,1.2,2.1s3.1,1.6,3.1,1.6l1.4,1.9c0,0,1,0.9,0.9,1.4c-0.1,0.5-2,2-2,2l-1.6-0.6c0,0-0.7,0.4-1.1,0
		c-0.4-0.4-1.4-0.4-2,0c-0.6,0.5-1.4,0.1-1.5,0.6c-0.1,0.6,0.5,0.4,0,1.2s-0.7-0.4-0.5,0.9c0.2,1.2,1,2.4,1.1,2.4
		c0.1,0,0.5,0.4,1.1,0.4c0.6,0.1,3.1-0.1,3.5,0c0.4,0.1,1.1,0,2.2,0c1.1,0,2.2,0,2.2,0l-0.1,3.2c-1.5,0.5-2.7,0.9-3.7,1
		c-1,0.1-1.2-0.6-1.6,0c-0.4,0.6-1,1.2-1.2,1.7c-0.2,0.5-0.2,1.2-0.2,2.1s0.5,0.9,0.5,1.5s0.4,1.1,1,2.6c0.6,1.5,0,1.5,0.6,1.5
		s1.4-0.4,1.7,0.9c0.4,1.2-1.2,0.7,0.4,1.2c1.6,0.5,5.3,1.1,5.3,1.1s0.9-0.7,1.1,0s1.1,1.1,1.1,1.1s-3.1,5-3.6,5.1
		c-0.5,0.1-4.2,1.5-4.7,2c-0.6,0.5-1.9,1.2-2.2,1.6c-0.4,0.4-0.7,0.6-0.7,1s0.1,1.2,0.1,1.2h0.5c0,0,1.7,0.2,2.2,0
		c0.5-0.2-0.2-0.2,1.7-1.1c2-0.9,3.2-0.6,3.6-1.1c0.4-0.5-1,0,0.4-0.5c1.4-0.5,1.2-0.6,2-1.2c0.7-0.6,1.7-1.2,2.6-1.9
		c0.9-0.6,1.7-1.7,1.7-1.7s0.4,1.5,1,1.6c0.6,0.1,1.1,0.2,1.9,0c0.7-0.2,2.4-0.5,2.4-1.2s-1-4.5-1-4.5l0.6-0.7c0,0,0.4-0.5,1-0.6
		c0.6-0.1,2.6-0.7,2.6-0.7l2.8-1.1c0,0,2.5-0.6,3-0.2c0.5,0.4,3.1,1.6,3.1,1.6s4.6,1.1,5.1,1.7c0.5,0.7,1.2,1.6,1.7,1.6
		s1-0.5,2.6,0.1c1.6,0.7,2,2,2,2l1.1,1.6l1.6,2.5l0.9,1.1c0,0,0.7-0.7,1.4,0.4c0.7,1,1.2,3.8,1.2,3.8l0.5,3.3c0,0,0.7-0.1,1,0.4
		c0.4,0.5,1,0.7,1,0.7l0.9,1.4l2.2,3l2.1,2.1l2.5,3.5H64c-0.4,0.9-0.9,1.7-1.5,2.6c0,0,0,4.1-1.2,4.7l2.6,12c0,0,4.6,2.6,4.2,5
		l0.7,0.1l-0.4,0.1l-0.4,1.5c-0.5,0.4,0,3.5,0,3.5l1.6,2l1.5,3.1l1.5,1.5l1.9,1.5c0,0,0.7,2,1.6,3.2c0.7,1.2,2.2,1.6,2.7,1.1
		c0.6-0.4,0-0.7-0.9-3.1c-0.9-2.4-0.2-0.4-0.6-1.1c-0.4-0.7-2-2.6-2-2.6l-2-2.2l-0.9-1.5c0,0-0.1-0.6-0.1-1c0.1-0.4,0.6-0.5,0.6-0.5
		s1.2,1.1,1.6,1.6c0.5,0.5,2.2,2.2,2.2,2.2s1,1,2.2,1.9c1.4,0.9,3.5,3.8,4.6,4.8c1.1,1,0.5,0.2,0.9,4.6c0.4,4.3,11.3,7.4,11.3,7.4
		s1.4,0.4,1.7,0.4c0.4,0,2.8,0.1,2.8,0.1l1.7,0.2l1.2,0.7l1.2,1.6l2.7,0.7c0,0,2.2,0.4,4.1,0.6c2,0.2,1.6,2.4,1.9,2.6
		c0.1,0.2,0.7,2.7,0.7,2.7l3.1,2.7l4.1,0.7l2.8-0.1c0,0,1.7,0.1,1.9,0c0.1,0,0.2-0.1,0.5-0.2c0,0.1-0.1,0.2-0.2,0.5
		c-0.5,0.7,0.6,1.1,0,2.1c-0.6,1-1.4,2.5-1.4,2.5l-1.1,1l-1.2,1.1l-0.6,1.2l-1,1.4v0.7l0.6,1.7l0.1,0.6c0,0-1,2.1-0.7,2.5
		c0.1,0.5,0,2.4,0,2.4s0.1,0,1.1,0.7c1,0.7,1.9,2.1,1.9,2.1l4.5,8.8l0.7,0.5l1.7,1.1l1.7,0.7l1.7,1.7l0.6,0.7c0,0,0.7,5,0.5,7.9
		c0,0-1.7,18.3-3.6,23c-1.9,4.7,0,7.7,0,7.7l-0.9,3.8c0,0,0,2.4,0,3.6c0,1.2,0,2.7,0,2.7l-1,1.2l2.7,10.3l4.2,3.3l1.1,2.8
		c0,0,4.1,1.6,4.5,0c0.4-1.6-3.2-3.6-3.2-3.6l-1.9-2.4l0.1-3.1l2.2-4.6l2.7-2.4l-2.1-4.1l0.7-1.6l2.2-3l1.2-3.3l2.1-2.4l1.1-1.9
		l5-1.5l1.7-1.6v-2.5v-2.1l3.6-1.2l3.3-4.1l2.1-2.7l0.7-1.4l1.2-0.5l1-2.4v-2.5l0.7-1.6l4.2-2.5h3l2.4-2.2l0.7-1.4l1.7-4.5v-3.8
		v-2.8l1.1-1.1l0.7-1.2l1.7-1.9l2.4-2.4c0,0-0.1-0.7,0-1.2c0.1-0.5,0-1.7,0-1.7l0.1-0.7L183.7,300.5z M105.8,219.7l0.9,0.1h-1
		C105.7,219.8,105.8,219.8,105.8,219.7z"/>
	<path fill="#010101" d="M496.2,165.8c-3.1-0.4-2.5-1.2-2.5-1.2l-6.8-5.7l-3.7-3c0,0-6.3-1.4-6.8-1.4s-3.1,0-3.1,0l-0.4,2.6
		c0,0-0.5,0.1-1,0.2c-0.5,0.1-1.9-0.7-2.2-1c-0.4-0.2-1.7-0.7-1.7-0.7h-4.8c0,0,0.1-0.1-0.9,0c-1,0.1-2.7,0.1-2.7,0.1l-1.5-1.2
		l1-1.7v-1.6h-0.5l-3.8-0.9h-2.1h-1.4h-4.1l-2-1.6c0,0-0.6-0.2-1.1-0.9s-1.4-2.4-1.4-2.4l-1-0.7H440c0,0-0.2,1.2-1.5,0.7
		c-1.2-0.5-3-2-3-2l-1-0.6h-1.1h-1.4l-1,1.7l-0.7,1.4l-0.9,1.6l-2.7,1.2l-1.9-0.1l-4.5-1.1l-1.2-0.1l-2.2,1.9l-1.4-0.6
		c0,0-0.5-2.1-0.5-2.5c0-0.4,0-1,0-1.5c0-0.5-0.1-1.2-0.1-1.9s0.9-1.2,0-1.9c-0.9-0.6-3.5-2.6-3.5-2.6s-0.1-0.5-1.2-0.6
		c-1.1-0.1-2.4,0-2.4,0h-0.6l-1,0.9l-0.5,1.2l-0.4,1.4c0,0-1.2,0.1-1.9-0.1c-0.6-0.2-2-1.2-2-1.2l-1.2-1c0,0-0.1-1.4-1-1.1
		c-0.9,0.1-2,0-2,0s-0.7-0.1-1.4,0c-0.6,0.1-1.9,0.4-2.2,0c-0.4-0.4-1.1-0.7-1.1-0.7s-0.6,0-1.5,0c-0.9,0-2.1,0-2.1,0l-0.6,1
		l-2.4,0.4l-0.9,0.6l-1-0.4l1-1.6l0.9-0.9l1.1-1.1l1.7-1.6l1.5-1.4l1.5-1.1l0.7-0.6c0,0,4.2-5-2-8.2s-4.3-1.5-4.3-1.5l-4.1-0.5v-2.1
		l-1.1-2c0,0-0.6,0.2-1.1,0c-0.5-0.2-2,0-2.4,0c-0.4,0-1-0.1-1-0.1s-0.4,0.5-1,2c-0.6,1.5-1,1.6-1.5,2.5c-0.5,0.9,0.5,0.5-1,1.5
		s-2.5,1.5-2.5,1.5l-1.5,0.7c0,0-1.7-0.1-2.8,0.1c-1.1,0.2-3,0.6-3,0.6l-2.1,1.5c0,0-1.5,0.9-1.7,1.4c-0.2,0.5-0.2,0.5-0.2,0.5
		l-2.7,1.5l-4.5,2.7l-0.1,0.6l0.6,1.4l1,1.2l0.1,1.2l-1.9-0.1l-1.7-0.2h-1.4l-2.4,2.2L344,141l-0.7,1.4l-2.7,2.5l-1.9,0.4h-1h-1.6
		l-1.4-3.2l-1-1.4l-0.9-0.9h-1.1l-1,1l-1.4,1.9l-1.5,2.7l-0.4,1.7l-0.2,1.1v1.9v3.3c0,0,0.1,0.2,0.2,1.1s0.6,1.9,0.6,1.9l0.6,5.1
		l-4.1-3.8l-2.8-2.7l-5.2-1.5h-1.5l2.6,2.8l0.4,1.5c0,0-1.1,2.4-1.5,2.4c-0.4,0-1.1-0.1-1.1-0.1l-1.2-0.2c0,0-0.1,0.4-1.1,0.4
		c-1,0-3.6-0.1-3.6-0.1s-0.7-0.1-1.4,0.1c-0.6,0.2-1.6,0.6-1.6,0.6l-2,1l-2.4,1.1c0,0,0.1,0.5-0.6,0.9c-0.7,0.4-0.9,0.2-1.4,0.7
		c-0.5,0.5-0.5,0.6-1.1,1c-0.6,0.4-0.6,0.4-0.6,0.4l-0.9,0.2l-2.2-0.2l-1,0.7l-1.6,0.6l-1.5,1.9l-1.6,2l-1,1.2l-0.5,1.5l-3.1,1.6
		l-2.1-0.4c0,0-1.1-1.1-1.1-1.7c0-0.6-0.6-1.9-0.6-1.9l-0.1-0.9l-0.5-2.7l-0.6-0.9l3.7,1.6l2.1,0.1l2.8-0.4l1.4-1.2l0.2-1.2v-2.2
		l-2.1-2.2l-1.9-1.7l-2.4-1.6l-2-0.1h-2.5l-0.6-0.6l-0.6-0.7c0,0-1.7-2.7-2.5-1.9c0,0-0.6,0.6-1.2,1.6c0.1-0.4,0.1-0.6,0.1-0.6
		c-1.6-8.5-13.6,0.5-13.6,0.5l-7.2,7.2l-1.1,6.3l-2.8,4.8l-7.8,7.3l-0.9,1.4l-0.9,3.2l0.5,6.2l1,1.5h3.3c0-1.6,2-3.3,2-3.3l1.1-0.9
		l1.2,2.1l1.4,0.6l0.5,3.1v3.1c0,0,0,1.4,1.1,1.5c1.1,0.2,5.3-4.1,5.3-4.1l-0.9-1.2c0,0-0.1-2.2,1.2-3.2c1.4-1,1-3.1,1-3.5
		c-0.1-0.4-1.5-1.9-1.6-2.6c-0.1-0.7,0.6-4.5,0.6-4.5s1.7-2.1,3-2.6c1.1-0.4,1.6-1.5,1.6-1.5s0.2-3.8,2.4-5.1
		c2.1-1.2,3.5,0.7,3.5,0.7l-0.2,1.7l-1.4,2.1c0,0-1.9,0.9-3.1,4c-1.1,3.1-0.1,6.8-0.1,6.8s0.4,0.9,0.5,1.4c0.1,0.5,0.6,0.2,1.2,0
		s2.2,0,2.2,0s1.4,0,1.6,0c0.4,0,1.1-1.4,1.1-1.4s0,0,2.1-0.1c0.1,0,0.2,0,0.4,0l0.7,0.7c-0.7,1.9-1.4,4-1.6,5.7
		c-0.4-1.4-1.1-2.5-1.1-2.5h-3.8l-1.7,1.1l1.5,1l1.2,0.7v2.6c-6.3-3.1-5,2.2-5,2.2l0.4,4.1l-4.2-0.5l-3.1,1.5l-2.6,0.5l-1.7-1.2
		l-0.4-1.6l-1-0.9l-1.7-0.5V199l-0.9-2.5c0,0-1.5,1.2-2,1.6c-0.5,0.4-0.7,1.2-0.7,1.2v0.7l0.4,1.7l1,2.6h-2.5l-2.2,0.1l-1.1,1
		l-0.6,2.5l-0.4,1.5l-1.5,1l-1.5,1.2l-3.3,2.1c0,0,1.5,3.6-3.1,2.7c-4.6-0.9-4.8,1.5-3.6,1.6c1.2,0.1,4.5,2.2,4.8,5
		c0.4,2.7,0.7,6.3-2.1,4.2s-7.6-0.4-8.4,0.1c-0.9,0.5-0.1,1.1-0.9,6.9c-0.6,5.8,6.4,5.2,6.4,5.2h1.5c0,0,0,0,1.7-0.1
		c1.7-0.1,1.2-1.1,1.2-1.1s1-1,2-1.7c1-0.9,0-0.5,0-0.5l0.1-0.5c0,0-0.4-2.5,0-2.8c0.4-0.5,1.2-1,1.2-1s0,0,0.6-0.4s1.6-0.7,1.6-0.7
		s0,0,0.5-0.4s0.7-0.9,0.7-0.9l0.2-1.5c0,0-0.5-1,0-1c0.5,0,1,0,1,0s0,2.2,2.8,0.5c3-1.7,3.7,0.1,3.7,0.1l-1.7,1.7v1.5v2.5
		c0,0,0,0,0,1.1c0,1.1,0.7,1,0.7,1l1.1,0.1c0,0,0,0,0.1-0.5c0.1-0.5,0.9-1,0.9-1s-0.1-1-0.6-1.5c-0.5-0.5,0-1.5,0-1.5v-0.9l0.9-1
		l0.7,0.1l2.1,0.4l1,1c0,0,0.9,0.5,1.6,1c0.9,0.5,2.5,2.6,2.5,2.6l-0.5,1.6l-1.1,1.1l-1.7,0.9l0.7,0.6l0.6,2.2l1.5-0.7l0.6-1.2
		l0.6-1l0.9-1l2.2-3.7l-1.6-1.7l-3.3-1.5c0,0-1.2-0.1-2.6-3.6c-1.2-3.3,1.6-2.8,1.6-2.8l1.1,1.2l2.1,2l1,0.6l2,0.6l1,0.9v0.6v2
		l0.7,1.6v0.6v1l0.7,1.2v1h0.6h1.6l1.1-1c0,0,0.5-2,0.1-2.8c-0.4-1,1.1-0.6,1.1-0.6h1.7l2.7-0.6l1.6-1.5c0,0-1.1-3.2,1.1-3.8
		c2.2-0.6,2.1-1.6,2.1-1.6c0.4-4.8,3.7-4.3,3.3-2.2c-0.4,2.1,0.6,2,0.6,2c3.1,1.2,2.6-1.5,2.6-1.5l1-2l1.5-1c0,0,1.5,0.1,2.1,0
		c0.1,0,0.2-0.1,0.4-0.1c-0.5,1.1-1,2.1-1.7,2.8c-2,2.2,5.4,5.9,5.4,5.9s1,5.2-6.9,2.7c-7.9-2.5-17.5,0.7-12.1,6.4
		c0,0,2.2,2.2,8.8,1.5c6.6-0.7,2.6,4.2,1.1,8.2c0,0,0,0,0,0.1c-0.2-0.1-0.4-0.1-0.4-0.1s-5.4,0.1-10-1.5c-4.6-1.6-8.5-3.5-8.9-1.4
		c-0.4,2.1-3,2.6-3,2.6l-4.8-2.5c0,0-7.1-0.5-5.6-2c1.5-1.5,0-5.9,0-5.9c-3,0.1-14.5,2.5-14.5,2.5l-7.4,1c-7.4,2.5-5.9,8.3-8.3,9.8
		s-11.4,9.9-10.3,12.4c1.1,2.5,1.1,8.4,0.9,10.3c-0.4,1.9,0.4,2,6.4,10c6.1,8,16.3,1.5,22.2,1.9c5.8,0.4,10.4,4,8.9,7.4
		c-1.5,3.5,0,4.8,0,4.8c8.9,7.9,4.5,14.5,3.6,17c-0.9,2.5-0.9,4.1-0.9,4.1l2.8,6.9l1.6,5.9c0,0,4.1,8.9,4.1,9.8c0,0.9,0,4.6,1.4,4.8
		c1.4,0.1,7.8-0.9,7.8-0.9c10.8-2.8,13.2-14.4,13.2-14.4c1.4,0,4.1-1.5,3.1-4c-1-2.5,0.1-6.6,2.4-7.1c2.1-0.5,7.1-3.8,4.1-10.3
		c-3-6.4,0-11.8,0-11.8c16.2-12,15-19.4,15-19.4c0.1-1.6-5,0.4-5,0.4c-2.4,0.5-5-1-5-1l-0.1-0.2c3.8-0.6,14.4-4.2,19.1-10.5
		c5.9-7.9,4.5-5-1.7-6.9c-6.2-2-5.4,0-7.2,0.5c-1.7,0.5-5.2-5.2-5.2-6.9c0-1.7-2-5.9,9.4,1.7c0,0,3.1,3,8.4,3c5.4,0,8.4,0.5,8.4,0.5
		l4,3c0,0,0.2,4.5,4,3.2v1.2l1.7,5.7c0,0,2.5,11.6,6.2,10.9l2-1.7l1.2,4.7c0,0,2.5,1.7,2.4-1.5c-0.1-3.2-2.8-3.5-2.2-6.6
		c0.6-3.1-1.1-3.1,4.2-7.6c5.3-4.6,11.1-10,12.6-5.3c1.5,4.7,5,6.8,5,6.8l2.8,0.6l1.1,3.1c0,0,0.5,9.7,1.9,10.9
		c1.4,1.2,1.4,4.2,1.4,4.2l-2.7-0.9l-4.7-2.8c0,0-3.1-7.2-3-10c0.1-2.8-5,9.8,10.4,22.8c0,0,10.9,7.3,14.4,7.3
		c3.5,0,8.9,0.9,8.9,0.9l5.8,2.1l5.8-0.7l5.7-2l3-1.2l-14.4,0.6l-11.8-1.7l-9.4-3.3l-1.7-2.2h3l-5.1-7.4l-4.6-7.9
		c0,0-1.2-6.4,0.6-6.6c1.9-0.1,5.6,4.1,5.6,4.1l0.6,1.9c0,0,7.9-0.1,5.8-8.7l-3.7-4.1l-1.1-2c0,0,0.6-3.5,4.2-3.7l0.1,2.7
		c0,0,0.7,1.9,3.2-0.1l0.9-2.6l2.1-1.7l3.8-1.2l5.3-3.3l2.1-6.4v-5.4c0,0-2.7-4.3-1.2-5.4s4.3-1.5,0.4-2.8c-0.1,0-0.2-0.1-0.5-0.1
		c-4.7-1.5-2-1-2-1v-1.9l4-1.9l3.8,0.2l1.5,2.1l-0.6,2l2.1,1.4c0,0,0.6,4.3-0.4,4.7c-1,0.4,4,1.2,5-3.5l-0.9-1.6l-0.9-2l-1-1.6
		l0.4-1.4l1.7-1.2l2-3l4-1c0,0,9.3-7.4,10.6-18.9v-3.6l-2.8-2.5l-2.1-2.1l0.1-1.6l0.9-2.6l6.6-6.3l5.3-0.4h5.7l3.6,0.7l2.1-0.5
		l1.4-4.1c0,0,4.7-5,6.9-1c0,0,0.2,1.4,2,0.2l2.2-1.4v2.2l-2.4,1.6l-3.6,4.3l-4.2,4.1l-1.4,3l0.4,8.5L450,215l6.6-8.8l4.5-4.7
		l0.9-2.6c0,0,1-2.8,0.9-3.5c-0.1-0.6-0.2-2.8-0.2-2.8l1.5-3l3.3-2.4l3.3-0.1l2.2,0.4l5.2-3.5l3.6-2.6l3-0.6l1.4-1.9l-1.2-3.7l1.2-3
		l1-0.1l1.7-1.7c0,0,2.4,0.1,2.6,0.6c0.2,0.5,0.1,0.9,0.7,1.5c0.6,0.6,2.8,2,2.8,2l1.5,0.5v-2.4l1.5-0.9l1.7-1
		C500,170.8,499.2,166.2,496.2,165.8z"/>
	<path fill="#010101" d="M308.1,151.1h2.5l2.6-0.9l-1.9-2.6l1-4.7l0.6-3.1c0,0,2.1-3.1,2.4-3.5c0.2-0.4,2.1-5,2.1-5l3.5-3.2l2.5-1.5
		l4.8-2.7c3.8-4.5-1.1-4.5-1.1-4.5l-2.8,2.7l-2,1l-3.8,0.7l-3.6,2.4l-3.5,2.8l-1.1,4.2l-1.9,4.1L306,143v3.5l0.7,2.7L308.1,151.1z"
		/>
	<path fill="#010101" d="M429.5,235.4c-0.4,0.7-1.2,1.5-1.2,1.5l-2,0.9l-3,2.6l-2.2,0.9l-3.2,1.2l-2.2,1.9l-0.7,1.9v0.5l2.6,3.8
		l0.9-2.2l0.7-1.6c0,0,0.5-1.2,1.6-1.6c1.1-0.4,2.7-1.1,2.7-1.1s-0.1-0.6,3.3-1.9c3.5-1.2,3.5-1.2,3.5-1.2l1.5-1.2l1.6-2.5
		c0,0-0.2-0.6,0-1.9c0.2-1.2,0.7-2.4,0.7-2.4v-3.6v-0.9c0,0,4.1-2.6,4.6-3c0.5-0.4,4.1-3.5,4.5-3.6c0.4-0.1,0.4-0.1,0.4-0.1
		s-6.8,1.2-7.2,1.6c-0.4,0.4-0.4,0.4-0.4,0.4s-0.9,0.1-0.9-0.5s0,0.5-0.2-2c-0.2-2.5-0.2-3.3-0.2-3.3l-0.5-7.1l-0.2,1.6l-0.7,5
		c0,0,0.4,1.1,0,2c-0.4,0.9,0.4,1,0,2c-0.4,1,0.6,1.4-0.1,2c-0.7,0.6-0.6,1.1-1.1,1.9c-0.5,0.7-0.6,1-0.9,1.5c-0.2,0.5,0,1.1,0,1.1
		s-0.5,0.7-0.6,1.9c-0.1,1.1,0,3,0,3v1.1C430.3,233.8,429.8,234.6,429.5,235.4z"/>
	<path fill="#010101" d="M396.8,286c-0.2,0.5-1.5,1.1-1.5,1.1s-4.2,3.6-4.8,4c-0.6,0.4-2,0.9-2,0.9l-0.7,2.6v2.6l1.2,1.9l3.1,0.4h3
		c0,0,0.5-0.2,1.1-1c0.5-0.7,0.4-0.7,0.5-1.2c0.1-0.5,0.6-1,1-1.5c0.4-0.5,0.6-2.1,0.6-2.1l1.6-6.3v-1.5l-1.1-0.5h-0.4
		C398.3,285,397,285.4,396.8,286z"/>
	<path fill="#010101" d="M404.5,268.2h-0.4H403l-1,0.5v3.7l0.5,3.5l0.7,1.5l1.7,3.2l0.4,2.1l0.5,2.2l3.7,0.5c0,0,0.5-0.2,1.2-1.6
		c0.7-1.4,0-1.9,0-1.9v-1.5v-2.2l-1.9-2.2h-0.5l-2.2-1.9c0,0-1.1-0.5-1.5-1.2c-0.4-0.6,0-0.9,0-0.9l-0.4-1.2v-1.6v-1H404.5z"/>
	<path fill="#010101" d="M412.5,299.1c0,0,2.1,0.4,3.1-0.4c1-0.7,2.5-1.2,2.5-1.2s1.1-0.6,2.5,0s3,1.2,3.3,1.6
		c0.4,0.4,2.1,1.6,2.1,1.6l4.6,4.2l2.4,1.9h2.2l1.5-1.7c0,0,1.5,0.5,1.7,1c0.2,0.5,2.1,2.2,2.5,2.4c0.4,0.1,2.1,0.4,2.1,0.4h2.8
		l2.6-0.6c0,0-1.9-0.6-3.2-1.1c-1.4-0.5-2.4-0.9-2.7-1.4c-0.4-0.5-0.5-1.7-0.5-1.7s-0.4-1,0-1s2.2-0.5,2.2-0.5l1.9-0.2l1.6-1.2
		l0.9-0.2l-1.2-3.5l-1.2,0.7l-3,1.2l-3,1.5l-1.5,0.2c0,0-0.9-0.9-1.9-1.2c-1-0.4-1.7-0.9-1.7-0.9l-4.3-1.6l-1.2-0.5h-4.2l-4.6-0.9
		l-4.1-0.5h-0.9l-2,1.1C413.5,296.5,411.6,298.2,412.5,299.1z"/>
	<path fill="#010101" d="M301.8,312.4c0,1.1-4.3,4.1-4.3,4.1c-2.8,1.4-2,2.1-2,2.1c1.1,1,2.1-1.1,0.5,3.1c-1.6,4.3-2.5,7.9,1.5,8.3
		c4,0.4,3.3-3.6,5.6-10.3c2.4-6.6,0-9,0-9C302.7,310.7,301.8,311.3,301.8,312.4z"/>
</g>
</svg>
