<?xml version="1.0" encoding="utf-8"?>
<!-- Generator: Adobe Illustrator 16.0.0, SVG Export Plug-In . SVG Version: 6.00 Build 0)  -->
<!DOCTYPE svg PUBLIC "-//W3C//DTD SVG 1.1//EN" "http://www.w3.org/Graphics/SVG/1.1/DTD/svg11.dtd">
<svg version="1.1" id="Ebene_1" xmlns="http://www.w3.org/2000/svg" xmlns:xlink="http://www.w3.org/1999/xlink" x="0px" y="0px"
	 width="360.13px" height="89.826px" viewBox="0 0 360.13 89.826" enable-background="new 0 0 360.13 89.826" xml:space="preserve">
<g>
	<g>
		<path fill="#80CEF4" d="M23.825,69.463V19.059h8.497v50.404H23.825z"/>
		<path fill="#80CEF4" d="M80.923,69.463L54.065,33.315v36.147h-8.497V19.059h8.353l27.002,36.219V19.059h8.353v50.404H80.923z"/>
	</g>
	<g>
		<path fill="#80CEF4" d="M224.957,69.499l-11.953-39.315l-12.097,39.315h-8.785l-16.706-50.404h9.145l12.241,40.972l12.169-40.899
			l8.353-0.072l12.241,40.972l12.169-40.972h8.785L233.67,69.499H224.957z"/>
		<path fill="#80CEF4" d="M260.018,58.122l-4.825,11.377h-8.857l22.25-50.404h8.713l22.034,50.404h-9.073l-4.824-11.377H260.018z
			 M272.691,28.167l-9.505,22.395h19.01L272.691,28.167z"/>
		<path fill="#80CEF4" d="M339.796,23.919l-3.528,7.489c-5.473-3.312-10.945-4.681-14.761-4.681c-4.969,0-8.209,1.872-8.209,5.256
			c0,11.018,27.218,5.113,27.146,23.259c0,9-7.921,14.545-19.01,14.545c-7.92,0-15.409-3.24-20.594-7.993l3.672-7.344
			c5.185,4.752,11.665,7.344,17.065,7.344c5.905,0,9.433-2.231,9.433-6.12c0-11.233-27.219-4.969-27.219-22.898
			c0-8.641,7.417-14.041,18.362-14.041C328.707,18.734,335.115,20.823,339.796,23.919z"/>
	</g>
	<g>
		<circle fill="#00ADE5" cx="134.39" cy="44.26" r="38.261"/>
		<circle fill="#FFFFFF" cx="147.12" cy="28.271" r="17.131"/>
	</g>
</g>
<g>
</g>
<g>
</g>
<g>
</g>
<g>
</g>
<g>
</g>
<g>
</g>
</svg>
