<?xml version="1.0" encoding="utf-8"?>
<!-- Generator: Adobe Illustrator 16.0.0, SVG Export Plug-In . SVG Version: 6.00 Build 0)  -->
<!DOCTYPE svg PUBLIC "-//W3C//DTD SVG 1.1//EN" "http://www.w3.org/Graphics/SVG/1.1/DTD/svg11.dtd">
<svg version="1.1" id="Forma_1_1_" xmlns="http://www.w3.org/2000/svg" xmlns:xlink="http://www.w3.org/1999/xlink" x="0px" y="0px"
	 width="64px" height="64px" viewBox="0 0 64 64" enable-background="new 0 0 64 64" xml:space="preserve">
<g id="Forma_1">
	<g>
		<path d="M64,16.207V0H47.794v7.112H16.208V0H0v16.207h7.112v31.586H0V64h16.207v-7.111h31.587V64H64V47.794h-7.11V16.207H64z
			 M1.985,14.223V1.985h12.237v12.238H1.985z M14.223,62.017H1.985V49.777h12.238V62.017z M47.794,54.904H16.208v-7.11H9.096V16.207
			h7.112V9.095h31.586v7.112h7.111v31.587h-7.111V54.904z M62.017,49.777v12.239H49.777V49.777H62.017z M49.777,14.222V1.985h12.239
			v12.237H49.777z"/>
	</g>
</g>
</svg>
