<?xml version="1.0" encoding="utf-8"?>
<!-- Generator: Adobe Illustrator 16.0.0, SVG Export Plug-In . SVG Version: 6.00 Build 0)  -->
<!DOCTYPE svg PUBLIC "-//W3C//DTD SVG 1.1//EN" "http://www.w3.org/Graphics/SVG/1.1/DTD/svg11.dtd">
<svg version="1.1" id="Shape_1_1_" xmlns="http://www.w3.org/2000/svg" xmlns:xlink="http://www.w3.org/1999/xlink" x="0px" y="0px"
	 width="800px" height="800px" viewBox="0 0 800 800" enable-background="new 0 0 800 800" xml:space="preserve">
<g id="Shape_1">
	<g>
		<path d="M139.391,465.782c-25.853,0-46.879,21.025-46.879,46.88c0,25.853,21.026,46.879,46.879,46.879
			c25.854,0,46.88-21.026,46.88-46.879C186.271,486.807,165.246,465.782,139.391,465.782z M662.588,379.961
			c-19.008,0-37.075,3.984-53.452,11.125L496.68,242.178l24.992-46.187l3.659-8.315c1.82-4.543,3.397-9.208,4.718-13.98
			c3.152-11.396,4.848-23.401,4.848-35.8C534.897,63.938,474.944,3.987,400.989,3.987c-73.955,0-133.909,59.952-133.909,133.907
			c0,12.401,1.694,24.404,4.847,35.8c1.265,4.562,2.757,9.03,4.476,13.386l4.061,9.227l24.831,45.885L192.832,391.079
			c-16.374-7.137-34.438-11.119-53.442-11.119C65.435,379.961,5.483,439.916,5.483,513.871c0,12.4,1.694,24.403,4.848,35.799
			c1.263,4.563,2.756,9.033,4.475,13.386l4.06,9.228L139.391,795l120.684-223.033l3.66-8.317c1.819-4.541,3.398-9.207,4.718-13.979
			c3.155-11.396,4.849-23.4,4.849-35.799c0-46.02-23.22-86.606-58.576-110.711l103.519-137.045l82.746,152.908l82.747-152.923
			l103.511,137.066c-35.352,24.104-58.568,64.689-58.568,110.704c0,12.4,1.693,24.403,4.847,35.799
			c1.264,4.563,2.756,9.033,4.476,13.386l4.06,9.228L662.588,795l120.683-223.033l3.659-8.317c1.819-4.541,3.398-9.207,4.717-13.979
			c1.764-6.37,3.052-12.937,3.861-19.649v-32.425C787.478,431.317,731.033,379.961,662.588,379.961z M139.391,584.26
			c-39.467,0-71.598-32.13-71.598-71.6c0-39.469,32.13-71.598,71.598-71.598c39.469,0,71.599,32.129,71.599,71.598
			C210.992,552.13,178.862,584.26,139.391,584.26z M400.996,208.281c-39.493,0-71.623-32.129-71.623-71.6
			c0-39.469,32.13-71.598,71.623-71.598c39.468,0,71.6,32.129,71.6,71.598C472.594,176.152,440.464,208.281,400.996,208.281z
			 M662.599,584.26c-39.493,0-71.622-32.13-71.622-71.6c0-39.469,32.129-71.598,71.622-71.598c39.469,0,71.598,32.129,71.598,71.598
			C734.196,552.13,702.067,584.26,662.599,584.26z M400.996,89.804c-25.854,0-46.903,21.026-46.903,46.88
			c0,25.854,21.05,46.879,46.903,46.879c25.853,0,46.88-21.026,46.88-46.879C447.876,110.83,426.849,89.804,400.996,89.804z
			 M662.599,465.782c-25.853,0-46.904,21.025-46.904,46.88c0,25.853,21.05,46.879,46.904,46.879
			c25.854,0,46.879-21.026,46.879-46.879C709.478,486.807,688.452,465.782,662.599,465.782z"/>
	</g>
</g>
</svg>
