<?xml version="1.0" encoding="utf-8"?>
<!-- Generator: Adobe Illustrator 16.0.0, SVG Export Plug-In . SVG Version: 6.00 Build 0)  -->
<!DOCTYPE svg PUBLIC "-//W3C//DTD SVG 1.1//EN" "http://www.w3.org/Graphics/SVG/1.1/DTD/svg11.dtd">
<svg version="1.1" id="Forma_1_1_" xmlns="http://www.w3.org/2000/svg" xmlns:xlink="http://www.w3.org/1999/xlink" x="0px" y="0px"
	 width="390px" height="482px" viewBox="0 0 390 482" enable-background="new 0 0 390 482" xml:space="preserve">
<g id="Forma_1">
	<g>
		<path d="M334.905,57.747h-75.07c-3.745-32.455-31.374-57.748-64.836-57.748c-33.46,0-61.085,25.292-64.83,57.748H55.094
			C24.713,57.747,0,82.453,0,112.814v2.826c0,23.202,14.456,43.062,34.819,51.153v260.139c0,30.362,24.717,55.068,55.096,55.068
			h210.172c30.378,0,55.094-24.707,55.094-55.068V166.795C375.545,158.702,390,138.843,390,115.642v-2.826
			C390,82.453,365.286,57.747,334.905,57.747z M194.999,26.115c19.03,0,34.917,13.633,38.432,31.632h-76.855
			C160.089,39.747,175.976,26.115,194.999,26.115z M329.05,426.934c0,15.963-12.996,28.953-28.964,28.953H89.914
			c-15.968,0-28.964-12.99-28.964-28.953V170.709H329.05V426.934z M363.87,115.641c0,15.964-12.997,28.953-28.965,28.953H55.094
			c-15.968,0-28.964-12.989-28.964-28.953v-2.826c0-15.963,12.996-28.953,28.964-28.953h279.812
			c15.968,0,28.965,12.99,28.965,28.953V115.641z M124.951,422.487c7.216,0,13.064-5.847,13.064-13.057V262.407
			c0-7.21-5.85-13.059-13.064-13.059s-13.065,5.849-13.065,13.059v147.023C111.885,416.642,117.735,422.487,124.951,422.487z
			 M194.999,422.487c7.216,0,13.065-5.847,13.065-13.057V262.407c0-7.21-5.851-13.059-13.065-13.059
			c-7.214,0-13.064,5.849-13.064,13.059v147.023C181.935,416.642,187.783,422.487,194.999,422.487z M265.047,422.487
			c7.216,0,13.065-5.847,13.065-13.057V262.407c0-7.21-5.851-13.059-13.065-13.059s-13.064,5.849-13.064,13.059v147.023
			C251.982,416.642,257.833,422.487,265.047,422.487z"/>
	</g>
</g>
</svg>
