<?xml version="1.0" encoding="utf-8"?>
<!-- Generator: Adobe Illustrator 16.0.0, SVG Export Plug-In . SVG Version: 6.00 Build 0)  -->
<!DOCTYPE svg PUBLIC "-//W3C//DTD SVG 1.1//EN" "http://www.w3.org/Graphics/SVG/1.1/DTD/svg11.dtd">
<svg version="1.1" id="Forma_1_1_" xmlns="http://www.w3.org/2000/svg" xmlns:xlink="http://www.w3.org/1999/xlink" x="0px" y="0px"
	 width="559px" height="548px" viewBox="0 0 559 548" enable-background="new 0 0 559 548" xml:space="preserve">
<g id="Forma_1">
	<g>
		<path d="M539.069,509.121H19.931c-10.914,0-19.456,9.009-19.456,19.439c0,10.432,9.016,19.44,19.456,19.44h519.613
			c10.914,0,19.456-9.009,19.456-19.44C559,518.13,549.983,509.121,539.069,509.121z M19.456,449.38l92.06-0.475
			c5.22,0,9.965-1.896,13.761-5.689l317.938-317.673c7.593-7.587,7.593-19.914,0-27.975l-91.11-91.982
			c-7.593-7.587-19.931-7.587-27.997,0l-63.588,64.009L6.169,323.259c-3.321,3.793-5.694,8.534-5.694,13.75L0,429.466
			c0,5.216,1.898,10.431,5.695,14.224C9.491,447.483,14.236,449.38,19.456,449.38z M338.342,47.31l64.062,64.009l-36.064,36.035
			l-64.062-64.009L338.342,47.31z M39.861,345.543L274.28,111.318l64.062,64.009L103.923,409.078l-64.536,0.474L39.861,345.543z"/>
	</g>
</g>
</svg>
