<?xml version="1.0" encoding="utf-8"?>
<!-- Generator: Adobe Illustrator 16.0.0, SVG Export Plug-In . SVG Version: 6.00 Build 0)  -->
<!DOCTYPE svg PUBLIC "-//W3C//DTD SVG 1.1//EN" "http://www.w3.org/Graphics/SVG/1.1/DTD/svg11.dtd">
<svg version="1.1" id="Forma_1_1_" xmlns="http://www.w3.org/2000/svg" xmlns:xlink="http://www.w3.org/1999/xlink" x="0px" y="0px"
	 width="55px" height="53px" viewBox="0 0 55 53" enable-background="new 0 0 55 53" xml:space="preserve">
<g id="Forma_1">
	<g>
		<path d="M45.059,26.001c0.553,0,1-0.444,1-0.994c0-0.549-0.447-0.994-1-0.994s-1.002,0.445-1.002,0.994
			C44.057,25.557,44.506,26.001,45.059,26.001z M9.029,24.013c-0.553,0-1.001,0.445-1.001,0.994c0,0.55,0.448,0.994,1.001,0.994
			s1-0.444,1-0.994C10.03,24.458,9.582,24.013,9.029,24.013z M12.032,26.996c-0.553,0-1.001,0.445-1.001,0.994
			c0,0.55,0.448,0.995,1.001,0.995c0.553,0,1-0.445,1-0.995C13.032,27.441,12.584,26.996,12.032,26.996z M18.036,28.985
			c0.553,0,1.001-0.445,1.001-0.995c0-0.549-0.448-0.994-1.001-0.994s-1,0.445-1,0.994C17.036,28.54,17.483,28.985,18.036,28.985z
			 M15.034,29.979c-0.553,0-1,0.445-1,0.995c0,0.549,0.448,0.994,1,0.994s1.001-0.445,1.001-0.994
			C16.035,30.425,15.586,29.979,15.034,29.979z M21.039,31.969c0.553,0,1.001-0.445,1.001-0.994c0-0.55-0.448-0.995-1.001-0.995
			s-1,0.445-1,0.995C20.038,31.523,20.486,31.969,21.039,31.969z M24.041,34.952c0.553,0,1.001-0.445,1.001-0.994
			c0-0.55-0.448-0.995-1.001-0.995s-1,0.445-1,0.995C23.041,34.507,23.488,34.952,24.041,34.952z M30.046,34.952
			c0.553,0,1.001-0.445,1.001-0.994c0-0.55-0.448-0.995-1.001-0.995s-1.001,0.445-1.001,0.995
			C29.045,34.507,29.493,34.952,30.046,34.952z M33.049,31.969c0.553,0,1-0.445,1-0.994c0-0.55-0.447-0.995-1-0.995
			s-1.001,0.445-1.001,0.995C32.048,31.523,32.496,31.969,33.049,31.969z M27.043,37.937c0.553,0,1.001-0.445,1.001-0.995
			c0-0.549-0.449-0.994-1.001-0.994s-1,0.445-1,0.994C26.043,37.491,26.491,37.937,27.043,37.937z M36.051,28.985
			c0.553,0,1.001-0.445,1.001-0.995c0-0.549-0.448-0.994-1.001-0.994s-1,0.445-1,0.994C35.051,28.54,35.498,28.985,36.051,28.985z
			 M42.056,28.985c0.553,0,1.001-0.445,1.001-0.995c0-0.549-0.448-0.994-1.001-0.994s-1.001,0.445-1.001,0.994
			C41.055,28.54,41.503,28.985,42.056,28.985z M39.053,31.969c0.553,0,1.002-0.445,1.002-0.994c0-0.55-0.449-0.995-1.002-0.995
			s-1,0.445-1,0.995C38.053,31.523,38.5,31.969,39.053,31.969z M45.336,31.938l0.07-0.04c0.07-0.026,0.129-0.068,0.19-0.108
			l9.401-5.338l-9.664-5.453l9.664-5.487L27.5-0.006L0.001,15.512l9.664,5.487l-9.664,5.453l9.664,5.486l-9.664,5.454L27.5,53.005
			l27.499-15.612L45.336,31.938z M4.045,15.517L27.5,2.28l23.455,13.236l-7.644,4.341l-15.811,8.977L4.045,15.517z M6.998,28.134
			c0.007-0.049,0.029-0.093,0.029-0.144c0-0.549-0.448-0.994-1-0.994c-0.239,0-0.45,0.095-0.622,0.233l-1.36-0.771l7.095-4.004
			c0.162,0.331,0.498,0.563,0.893,0.563c0.27,0,0.512-0.108,0.692-0.281l2.264,1.285c-0.53,0.024-0.955,0.452-0.955,0.985
			c0,0.549,0.448,0.994,1,0.994c0.553,0,1.001-0.445,1.001-0.994c0-0.172-0.055-0.325-0.132-0.467l10.338,5.87
			c-0.116,0.162-0.198,0.351-0.198,0.564c0,0.549,0.448,0.994,1,0.994c0.553,0,1.001-0.445,1.001-0.994
			c0-0.051-0.021-0.094-0.029-0.143l10.061-5.712c0.059,0.493,0.465,0.88,0.977,0.88c0.553,0,1.002-0.445,1.002-0.994
			c0-0.323-0.166-0.598-0.406-0.778l2.203-1.252c0.068,0.016,0.133,0.041,0.204,0.041c0.444,0,0.808-0.292,0.938-0.69l0.32-0.182
			l7.641,4.312l-1.984,1.127c-0.158-0.346-0.504-0.588-0.909-0.588c-0.552,0-1.001,0.445-1.001,0.994
			c0,0.215,0.084,0.403,0.199,0.565l-3.948,2.241l-6.394,3.631c0.078-0.142,0.135-0.297,0.135-0.47c0-0.549-0.448-0.995-1.001-0.995
			c-0.552,0-1.001,0.446-1.001,0.995c0,0.534,0.427,0.962,0.958,0.985l-2.265,1.286c-0.18-0.173-0.424-0.282-0.695-0.282
			c-0.552,0-1,0.445-1,0.994c0,0.08,0.027,0.15,0.046,0.225l-4.594,2.608l-5.521-3.135c-0.13-0.399-0.494-0.692-0.94-0.692
			c-0.073,0-0.138,0.026-0.206,0.041l-2.203-1.25c0.241-0.182,0.407-0.455,0.407-0.779c0-0.549-0.448-0.995-1.001-0.995
			c-0.512,0-0.919,0.39-0.978,0.883L6.998,28.134z M27.499,50.714L4.045,37.397l7.639-4.312L27.5,42.064l15.814-8.979l7.64,4.312
			L27.499,50.714z"/>
	</g>
</g>
</svg>
