<?xml version="1.0" encoding="utf-8"?>
<!-- Generator: Adobe Illustrator 16.0.0, SVG Export Plug-In . SVG Version: 6.00 Build 0)  -->
<!DOCTYPE svg PUBLIC "-//W3C//DTD SVG 1.1//EN" "http://www.w3.org/Graphics/SVG/1.1/DTD/svg11.dtd">
<svg version="1.1" id="Forma_1_1_" xmlns="http://www.w3.org/2000/svg" xmlns:xlink="http://www.w3.org/1999/xlink" x="0px" y="0px"
	 width="610px" height="612px" viewBox="0 0 610 612" enable-background="new 0 0 610 612" xml:space="preserve">
<g id="Forma_1">
	<g>
		<path fill="#FFFFFF" d="M279.75,297.364L26.564,189.094C13.981,183.713,0,192.968,0.032,206.657L0.69,484.875
			c0.018,7.611,4.563,14.481,11.559,17.474l253.186,108.271c12.584,5.381,26.564-3.875,26.532-17.564l-0.658-278.217
			C291.292,307.226,286.746,300.355,279.75,297.364z M609.324,205.215c-0.025-10.971-9.037-19.052-19.08-19.027
			c-2.488,0.006-5.041,0.51-7.534,1.591L330.039,297.245c-6.982,3.025-11.496,9.917-11.478,17.529l0.658,278.217
			c0.025,10.972,9.038,19.052,19.081,19.028c2.487-0.007,5.041-0.511,7.534-1.591l252.67-109.468
			c6.982-3.024,11.495-9.917,11.477-17.528L609.324,205.215z M347.754,578.453l-0.608-257.477L580.79,219.753l0.609,257.477
			L347.754,578.453z M577.199,119.097L310.817,1.625C308.355,0.54,305.723,0,303.09,0.006c-2.633,0.007-5.264,0.559-7.721,1.655
			L29.546,120.393c-15.08,6.735-15.029,28.167,0.083,34.831l266.382,117.471c2.461,1.085,5.095,1.625,7.728,1.618
			c2.632-0.006,5.263-0.558,7.72-1.655l265.824-118.73C592.361,147.192,592.311,125.761,577.199,119.097z M303.668,244.839
			L60.793,137.734L303.159,29.48l242.876,107.105L303.668,244.839z"/>
	</g>
</g>
</svg>
