<?xml version="1.0" encoding="utf-8"?>
<!-- Generator: Adobe Illustrator 16.0.0, SVG Export Plug-In . SVG Version: 6.00 Build 0)  -->
<!DOCTYPE svg PUBLIC "-//W3C//DTD SVG 1.1//EN" "http://www.w3.org/Graphics/SVG/1.1/DTD/svg11.dtd">
<svg version="1.1" id="Forma_1_1_" xmlns="http://www.w3.org/2000/svg" xmlns:xlink="http://www.w3.org/1999/xlink" x="0px" y="0px"
	 width="54px" height="56px" viewBox="0 0 54 56" enable-background="new 0 0 54 56" xml:space="preserve">
<g id="Forma_1">
	<g>
		<path d="M7,14c3.519,0,6.432-2.614,6.92-6H53c0.553,0,1-0.447,1-1s-0.447-1-1-1H13.92C13.432,2.614,10.519,0,7,0
			C3.14,0,0,3.141,0,7S3.14,14,7,14z M7,2c2.757,0,5,2.243,5,5s-2.243,5-5,5S2,9.757,2,7S4.243,2,7,2z M47,42
			c-3.52,0-6.432,2.614-6.92,6H1c-0.552,0-1,0.447-1,1s0.448,1,1,1h39.08c0.488,3.386,3.4,6,6.92,6c3.859,0,7-3.141,7-7
			S50.859,42,47,42z M47,54c-2.757,0-5-2.243-5-5s2.243-5,5-5s5,2.243,5,5S49.757,54,47,54z M53,27H34.368
			c-0.396-3.602-3.455-6.414-7.161-6.414S20.442,23.399,20.046,27H1c-0.552,0-1,0.447-1,1s0.448,1,1,1h19.109
			c0.577,3.4,3.536,6,7.098,6c3.562,0,6.52-2.6,7.098-6H53c0.553,0,1-0.447,1-1S53.553,27,53,27z M27.207,33
			C24.336,33,22,30.664,22,27.793s2.336-5.207,5.207-5.207s5.207,2.336,5.207,5.207S30.078,33,27.207,33z"/>
	</g>
</g>
</svg>
