<?xml version="1.0" encoding="utf-8"?>
<!-- Generator: Adobe Illustrator 16.0.0, SVG Export Plug-In . SVG Version: 6.00 Build 0)  -->
<!DOCTYPE svg PUBLIC "-//W3C//DTD SVG 1.1//EN" "http://www.w3.org/Graphics/SVG/1.1/DTD/svg11.dtd">
<svg version="1.1" id="Layer_1" xmlns="http://www.w3.org/2000/svg" xmlns:xlink="http://www.w3.org/1999/xlink" x="0px" y="0px"
	 width="200px" height="200px" viewBox="0 0 200 200" enable-background="new 0 0 200 200" xml:space="preserve">
<g id="Forma_1">
	<g>
		<path d="M98.562,17.776c-33.485,0-60.728,27.267-60.728,60.781c0,19.328,16.195,48.125,25.85,63.57
			c6.351,10.161,13.177,19.831,19.219,27.229c9.697,11.874,13.169,12.869,15.66,12.869c2.528,0,5.805-0.995,15.473-12.875
			c6.056-7.442,12.885-17.106,19.229-27.215c9.722-15.483,26.025-44.33,26.025-63.578C159.289,45.042,132.047,17.776,98.562,17.776z
			 M126.586,134.629c-12.455,20.235-23.89,33.908-28.082,37.399c-4.213-3.384-15.462-16.732-28.092-37.337
			C55.831,110.899,47.468,90.44,47.468,78.557c-0.001-28.199,22.92-51.14,51.094-51.14c28.175,0,51.096,22.941,51.096,51.14
			C149.657,90.372,141.248,110.81,126.586,134.629z"/>
	</g>
</g>
<g>
</g>
<g>
</g>
<g>
</g>
<g>
</g>
<g>
</g>
<g>
</g>
<g>
</g>
<g>
</g>
<g>
</g>
<g>
</g>
<g>
</g>
<g>
</g>
<g>
</g>
<g>
</g>
<g>
</g>
</svg>
