<?xml version="1.0" encoding="utf-8"?>
<!-- Generator: Adobe Illustrator 16.0.0, SVG Export Plug-In . SVG Version: 6.00 Build 0)  -->
<!DOCTYPE svg PUBLIC "-//W3C//DTD SVG 1.1//EN" "http://www.w3.org/Graphics/SVG/1.1/DTD/svg11.dtd">
<svg version="1.1" id="Forma_1_1_" xmlns="http://www.w3.org/2000/svg" xmlns:xlink="http://www.w3.org/1999/xlink" x="0px" y="0px"
	 width="900px" height="901px" viewBox="0 0 900 901" enable-background="new 0 0 900 901" xml:space="preserve">
<g id="Forma_1">
	<g>
		<path fill="#FFFFFF" d="M809.156,761.211H135.738V86.895C135.738,62.113,115.625,42,90.843,42S45.949,62.113,45.949,86.895
			v674.316c0,49.474,40.315,89.789,89.789,89.789h673.418c24.781,0,44.895-20.113,44.895-44.895S833.938,761.211,809.156,761.211z
			 M183.237,656.337l35.466,27.565c9.787,7.633,23.884,5.837,31.516-3.95L388.405,501.9c7.542-9.787,18.856-15.982,31.156-17.15
			l152.912-14.815c11.852-1.167,22.806-6.913,30.349-16.162l156.771-190.532l37.711,31.247
			c14.366,11.852,36.096,2.154,36.725-16.521l5.477-153.271c0.539-14.456-12.66-25.679-26.847-22.806l-153.271,30.887
			c-18.497,3.682-24.423,27.207-9.876,39.329l40.943,33.94l-133.427,161.89c-7.542,9.159-18.497,14.995-30.349,16.162
			l-154.437,14.904c-12.212,1.258-23.525,7.454-31.067,17.15l-161.89,208.67C171.653,634.608,173.449,648.705,183.237,656.337z"/>
	</g>
</g>
</svg>
