<?xml version="1.0" encoding="utf-8"?>
<!-- Generator: Adobe Illustrator 16.0.0, SVG Export Plug-In . SVG Version: 6.00 Build 0)  -->
<!DOCTYPE svg PUBLIC "-//W3C//DTD SVG 1.1//EN" "http://www.w3.org/Graphics/SVG/1.1/DTD/svg11.dtd">
<svg version="1.1" id="Layer_1" xmlns="http://www.w3.org/2000/svg" xmlns:xlink="http://www.w3.org/1999/xlink" x="0px" y="0px"
	 width="200px" height="200px" viewBox="0 0 200 200" enable-background="new 0 0 200 200" xml:space="preserve">
<g id="Forma_1">
	<g>
		<path d="M30.423,64.673c16.948-14.554,30.335-26.061,66.656-5.537c17.448,9.858,31.522,13.579,43.239,13.577
			c20.516,0,33.807-11.415,45.301-21.292c4.102-3.52,4.627-9.768,1.18-13.957c-3.449-4.187-9.566-4.729-13.666-1.206
			c-16.947,14.56-30.332,26.063-66.664,5.536c-47.993-27.11-70.472-7.797-88.534,7.714c-4.098,3.522-4.627,9.77-1.179,13.959
			C20.204,67.655,26.322,68.196,30.423,64.673z M173.133,85.794c-16.947,14.557-30.332,26.06-66.664,5.536
			c-47.993-27.112-70.472-7.801-88.534,7.714c-4.098,3.524-4.627,9.772-1.179,13.956c3.448,4.187,9.568,4.729,13.667,1.206
			c16.948-14.558,30.335-26.061,66.656-5.539c17.448,9.856,31.522,13.578,43.239,13.578c20.516,0,33.807-11.412,45.301-21.289
			c4.102-3.524,4.627-9.772,1.18-13.957C183.35,82.808,177.232,82.269,173.133,85.794z M173.133,135.325
			c-16.947,14.556-30.332,26.062-66.664,5.534c-47.993-27.112-70.472-7.799-88.534,7.717c-4.098,3.522-4.627,9.772-1.179,13.96
			c3.448,4.185,9.568,4.727,13.667,1.202c16.948-14.559,30.333-26.058,66.656-5.539c17.448,9.861,31.522,13.58,43.239,13.58
			c20.516,0,33.807-11.417,45.301-21.29c4.102-3.522,4.627-9.772,1.18-13.961C183.35,132.343,177.232,131.805,173.133,135.325z"/>
	</g>
</g>
<g>
</g>
<g>
</g>
<g>
</g>
<g>
</g>
<g>
</g>
<g>
</g>
<g>
</g>
<g>
</g>
<g>
</g>
<g>
</g>
<g>
</g>
<g>
</g>
<g>
</g>
<g>
</g>
<g>
</g>
</svg>
