<?xml version="1.0" encoding="utf-8"?>
<!-- Generator: Adobe Illustrator 16.0.0, SVG Export Plug-In . SVG Version: 6.00 Build 0)  -->
<!DOCTYPE svg PUBLIC "-//W3C//DTD SVG 1.1//EN" "http://www.w3.org/Graphics/SVG/1.1/DTD/svg11.dtd">
<svg version="1.1" id="Forma_1_1_" xmlns="http://www.w3.org/2000/svg" xmlns:xlink="http://www.w3.org/1999/xlink" x="0px" y="0px"
	 width="55px" height="53px" viewBox="0 0 55 53" enable-background="new 0 0 55 53" xml:space="preserve">
<g id="Forma_1">
	<g>
		<path d="M45.335,20.999l9.664-5.486L27.5-0.006l-27.5,15.519l9.664,5.486l-9.664,5.453l9.664,5.487l-9.664,5.453l27.5,15.612
			l27.499-15.612l-9.664-5.453l9.664-5.487L45.335,20.999z M4.045,15.518L27.5,2.281l23.455,13.236L27.5,28.834L4.045,15.518z
			 M50.955,37.397L27.5,50.714L4.045,37.397l7.641-4.312L27.5,42.064l15.815-8.979L50.955,37.397z M27.5,39.774L4.045,26.457
			l7.641-4.311L27.5,31.125l15.815-8.979l7.64,4.311L27.5,39.774z"/>
	</g>
</g>
</svg>
